<svg xmlns="http://www.w3.org/2000/svg" width="194" height="41" viewBox="0 0 194 41">
  <defs>
    <linearGradient id="info_logo-a" x1="11.154%" x2="65.452%" y1="100%" y2="0%">
      <stop offset="0%" stop-color="#30E6DD"/>
      <stop offset="100%" stop-color="#2FC3E0"/>
    </linearGradient>
  </defs>
  <g fill="none">
    <path fill="#192F42" d="M3.5291072,0.589922216 C1.59432188,0.589922216 1.17636867e-06,2.18761715 1.17636867e-06,4.12649727 L1.17636867e-06,37.1345547 C1.17636867e-06,39.073423 1.59432188,40.6711297 3.5291072,40.6711297 L39.9965362,40.6711297 C41.9313192,40.6711297 43.5256399,39.073423 43.5256399,37.1345547 L43.5256399,4.12649727 C43.5256399,2.18761715 41.9313192,0.589922216 39.9965362,0.589922216 L3.5291072,0.589922216 Z M3.5291072,2.94763892 L10.9549345,2.94763892 L5.91860608,8.84193068 L2.35273853,8.84193068 L2.35273853,4.12649727 C2.35273853,3.45301549 2.85704777,2.94763892 3.5291072,2.94763892 Z M14.061283,2.94763892 L22.7186212,2.94763892 L17.6822928,8.84193068 L9.02495462,8.84193068 L14.061283,2.94763892 Z M25.8249697,2.94763892 L34.482308,2.94763892 L29.4459796,8.84193068 L20.7886414,8.84193068 L25.8249697,2.94763892 Z M37.5886565,2.94763892 L39.9965362,2.94763892 C40.6685932,2.94763892 41.1729025,3.45301549 41.1729025,4.12649727 L41.1729025,8.84193068 L32.5523281,8.84193068 L37.5886565,2.94763892 Z M2.35273853,11.1996474 L41.1729025,11.1996474 L41.1729025,37.1345547 C41.1729025,37.8080364 40.6685932,38.313413 39.9965362,38.313413 L3.5291072,38.313413 C2.85704777,38.313413 2.35273853,37.8080364 2.35273853,37.1345547 L2.35273853,11.1996474 Z M58.9169295,12.7969697 L70.4860449,12.7969697 L70.4860449,15.9278788 L62.3119295,15.9278788 L62.3119295,20.1024242 L68.8930064,20.1024242 L68.8930064,23.2333333 L62.3119295,23.2333333 L62.3119295,31.0606061 L58.9169295,31.0606061 L58.9169295,12.7969697 Z M72.5491603,14.1276061 C72.5491603,12.9535152 73.4370833,12.0403333 74.638391,12.0403333 C75.8396987,12.0403333 76.7276218,12.9535152 76.7276218,14.1276061 C76.7276218,15.301697 75.8396987,16.2148788 74.638391,16.2148788 C73.4370833,16.2148788 72.5491603,15.301697 72.5491603,14.1276061 Z M73.0192372,17.9107879 L76.2575449,17.9107879 L76.2575449,31.0606061 L73.0192372,31.0606061 L73.0192372,17.9107879 Z M79.9398141,12.5882424 L83.1781218,12.5882424 L83.1781218,31.0606061 L79.9398141,31.0606061 L79.9398141,12.5882424 Z M97.5415833,31.0606061 L94.3032756,31.0606061 L94.3032756,22.2940606 C94.3032756,20.9634242 93.650391,20.467697 92.6841218,20.467697 C91.0910833,20.467697 89.8375449,22.3201515 89.8375449,26.2337879 L89.8375449,31.0606061 L86.5992372,31.0606061 L86.5992372,17.9107879 L89.8375449,17.9107879 L89.8375449,20.0241515 C90.8038141,18.5630606 91.9267756,17.7020606 93.6242756,17.7020606 C95.2434295,17.7020606 96.7320064,18.5108788 97.3065449,20.4155152 C98.2466987,18.7196061 99.7091603,17.7020606 101.328314,17.7020606 C103.78316,17.7020606 105.245622,19.2153333 105.245622,21.7461515 L105.245622,31.0606061 L102.007314,31.0606061 L102.007314,22.2940606 C102.007314,20.9634242 101.354429,20.467697 100.38816,20.467697 C98.8212372,20.467697 97.5415833,22.2418788 97.5415833,25.9467879 L97.5415833,31.0606061 Z M107.021468,17.9107879 L110.285891,17.9107879 L113.341391,26.1555152 L116.214083,17.9107879 L119.452391,17.9107879 L112.662391,36.3831515 L109.528545,36.3831515 L111.800583,30.225697 L107.021468,17.9107879 Z M129.376237,12.5882424 C133.99866,12.5882424 137.994314,15.588697 137.994314,21.9287879 C137.994314,24.0682424 137.550353,25.8163333 136.766891,27.1991515 L138.516622,28.9211515 L136.140122,31.2693333 L134.547083,29.7038788 C133.084622,30.7736061 131.28266,31.2693333 129.376237,31.2693333 C124.753814,31.2693333 120.75816,28.2688788 120.75816,21.9287879 C120.75816,15.588697 124.753814,12.5882424 129.376237,12.5882424 Z M129.794083,24.9553333 L132.170583,22.6071515 L134.155353,24.6161515 C134.416506,23.8595152 134.547083,22.9724242 134.547083,21.9287879 C134.547083,17.597697 132.118353,15.7191515 129.376237,15.7191515 C126.634122,15.7191515 124.205391,17.597697 124.205391,21.9287879 C124.205391,26.2598788 126.634122,28.1384242 129.376237,28.1384242 C130.394737,28.1384242 131.361006,27.8775152 132.170583,27.355697 L129.794083,24.9553333 Z M152.462237,31.0606061 L149.223929,31.0606061 L149.223929,28.9472424 C148.25766,30.3300606 146.847429,31.2693333 145.149929,31.2693333 C142.799545,31.2693333 141.102045,29.938697 141.102045,27.3035152 L141.102045,17.9107879 L144.340353,17.9107879 L144.340353,26.3381515 C144.340353,27.9036061 145.123814,28.503697 146.22066,28.503697 C147.787583,28.503697 149.223929,26.6251515 149.223929,23.1550606 L149.223929,17.9107879 L152.462237,17.9107879 L152.462237,31.0606061 Z M155.465506,24.485697 C155.465506,20.6764242 157.920353,17.7020606 162.151045,17.7020606 C166.381737,17.7020606 168.836583,20.6764242 168.836583,24.485697 C168.836583,28.2949697 166.381737,31.2693333 162.151045,31.2693333 C157.920353,31.2693333 155.465506,28.2949697 155.465506,24.485697 Z M158.860506,24.485697 C158.860506,26.6512424 160.061814,28.503697 162.151045,28.503697 C164.240276,28.503697 165.441583,26.6512424 165.441583,24.485697 C165.441583,22.3201515 164.240276,20.467697 162.151045,20.467697 C160.061814,20.467697 158.860506,22.3201515 158.860506,24.485697 Z M178.734314,28.1906061 L179.49166,30.799697 C178.760429,31.1388788 178.055314,31.2693333 177.350199,31.2693333 C174.373045,31.2693333 172.518853,29.6777879 172.518853,26.4164242 L172.518853,20.6764242 L170.481853,20.6764242 L170.481853,17.9107879 L172.518853,17.9107879 L172.518853,14.6233333 L175.75716,12.5882424 L175.75716,17.9107879 L179.230506,17.9107879 L179.230506,20.6764242 L175.75716,20.6764242 L175.75716,26.3642424 C175.75716,27.9818788 176.383929,28.503697 177.480776,28.503697 C177.924737,28.503697 178.290353,28.4254242 178.734314,28.1906061 Z M193.698429,24.198697 L193.698429,25.5293333 L184.636391,25.5293333 C184.714737,26.9904242 185.733237,28.503697 187.744122,28.503697 C189.232699,28.503697 190.146737,27.8253333 190.930199,26.4686061 L193.541737,27.4339697 C192.523237,29.7560606 190.747391,31.2693333 187.561314,31.2693333 C183.043353,31.2693333 181.241391,27.5905152 181.241391,24.485697 C181.241391,21.3808788 183.043353,17.7020606 187.561314,17.7020606 C191.948699,17.7020606 193.698429,21.328697 193.698429,24.198697 Z M187.561314,20.467697 C185.916045,20.467697 184.949776,21.7200606 184.714737,22.9724242 L190.381776,22.9724242 C190.094506,21.6678788 189.284929,20.467697 187.561314,20.467697 Z"/>
    <path fill="url(#info_logo-a)" d="M27.6747453,32.0942453 C30.350984,32.0942453 32.6449029,30.2670148 32.6449029,26.3178394 C32.6449029,20.7182621 28.0864744,17.4174587 25.4984632,17.0932727 L24.9396882,18.6257886 C26.4395582,19.5983468 27.6747453,21.3076913 27.5571084,22.2802494 C25.8513739,22.4276068 23.1163167,23.341222 23.1163167,26.9956829 C23.1163167,29.766 24.6750053,32.0942453 27.6747453,32.0942453 Z M16.3227875,32.0942453 C18.9990264,32.0942453 21.2929453,30.2670148 21.2929453,26.3178394 C21.2929453,20.7182621 16.7345166,17.4174587 14.1465055,17.0932727 L13.5877304,18.6257886 C15.0876005,19.5983468 16.3227875,21.3076913 16.2051507,22.2802494 C14.4994161,22.4276068 11.764359,23.341222 11.764359,26.9956829 C11.764359,29.766 13.3230475,32.0942453 16.3227875,32.0942453 Z" transform="rotate(-180 22.205 24.594)"/>
  </g>
</svg>
