<svg xmlns="http://www.w3.org/2000/svg" width="67" height="44" viewBox="0 0 67 44">
  <path fill="#2AB8CE" d="M77.625,242 L69.25,248.05 L60.875,242 L52.5,248.05 L44.125,242 L35.75,248.05 L27.375,242 L19,248.05 L19,252.45 L27.375,246.4 L35.75,252.45 L44.125,246.4 L52.5,252.45 L60.875,246.4 L69.25,252.45 L77.625,246.4 L86,252.45 L86,248.05 L77.625,242 Z M69.25,256.483333 L60.875,250.433333 L52.5,256.483333 L44.125,250.433333 L35.75,256.483333 L27.375,250.433333 L19,256.483333 L19,260.883333 L27.375,254.833333 L35.75,260.883333 L44.125,254.833333 L52.5,260.883333 L60.875,254.833333 L69.25,260.883333 L77.625,254.833333 L86,260.883333 L86,256.483333 L77.625,250.433333 L69.25,256.483333 Z M69.25,264.916667 L60.875,258.866667 L52.5,264.916667 L44.125,258.866667 L35.75,264.916667 L27.375,258.866667 L19,264.916667 L19,269.316667 L27.375,263.266667 L35.75,269.316667 L44.125,263.266667 L52.5,269.316667 L60.875,263.266667 L69.25,269.316667 L77.625,263.266667 L86,269.316667 L86,264.916667 L77.625,258.866667 L69.25,264.916667 Z M69.25,273.166667 L60.875,267.116667 L52.5,273.166667 L44.125,267.116667 L35.75,273.166667 L27.375,267.116667 L19,273.166667 L19,277.566667 L27.375,271.516667 L35.75,277.566667 L44.125,271.516667 L52.5,277.566667 L60.875,271.516667 L69.25,277.566667 L77.625,271.516667 L86,277.566667 L86,273.166667 L77.625,267.116667 L69.25,273.166667 Z M69.25,281.6 L60.875,275.55 L52.5,281.6 L44.125,275.55 L35.75,281.6 L27.375,275.55 L19,281.6 L19,286 L27.375,279.95 L35.75,286 L44.125,279.95 L52.5,286 L60.875,279.95 L69.25,286 L77.625,279.95 L86,286 L86,281.6 L77.625,275.55 L69.25,281.6 Z" transform="translate(-19 -242)"/>
</svg>
