<svg xmlns="http://www.w3.org/2000/svg" width="171" height="187" viewBox="0 0 171 187">
  <g fill="none">
    <polygon fill="#2AB8CE" points="171 47.65 32 187 32 139.35 171 0"/>
    <polygon fill="#FFBF00" points="53 133.079 0 186 0 167.921 53 115"/>
    <path fill="#F85F10" d="M132,166.5 C132,175.086331 125.086331,182 116.5,182 C107.913669,182 101,175.086331 101,166.5 C101,157.913669 107.913669,151 116.5,151 C125.086331,151 132,157.913669 132,166.5 Z M116.5,156.464029 C111.035971,156.464029 106.57554,160.92446 106.57554,166.388489 C106.57554,171.852518 111.035971,176.31295 116.5,176.31295 C121.964029,176.31295 126.42446,171.852518 126.42446,166.388489 C126.42446,160.92446 122.07554,156.464029 116.5,156.464029 Z"/>
  </g>
</svg>
