<svg xmlns="http://www.w3.org/2000/svg" width="156" height="33" viewBox="0 0 156 33">
  <g fill="none">
    <path fill="#FFF" d="M2.83783878,0.474815442 C1.28203203,0.474815442 9.45945945e-07,1.76076502 9.45945945e-07,3.32132707 L9.45945945e-07,29.8887879 C9.45945945e-07,31.4493405 1.28203203,32.7352995 2.83783878,32.7352995 L32.1621631,32.7352995 C33.717968,32.7352995 34.9999991,31.4493405 34.9999991,29.8887879 L34.9999991,3.32132707 C34.9999991,1.76076502 33.717968,0.474815442 32.1621631,0.474815442 L2.83783878,0.474815442 Z M2.83783878,2.37248986 L8.80912257,2.37248986 L4.75929149,7.11667591 L1.89189284,7.11667591 L1.89189284,3.32132707 C1.89189284,2.77925637 2.29741986,2.37248986 2.83783878,2.37248986 Z M11.3070111,2.37248986 L18.268582,2.37248986 L14.2187509,7.11667591 L7.25718,7.11667591 L11.3070111,2.37248986 Z M20.7664705,2.37248986 L27.7280415,2.37248986 L23.6782104,7.11667591 L16.7166395,7.11667591 L20.7664705,2.37248986 Z M30.22593,2.37248986 L32.1621631,2.37248986 C32.7025801,2.37248986 33.1081072,2.77925637 33.1081072,3.32132707 L33.1081072,7.11667591 L26.1760989,7.11667591 L30.22593,2.37248986 Z M1.89189284,9.01435033 L33.1081072,9.01435033 L33.1081072,29.8887879 C33.1081072,30.4308586 32.7025801,30.8376251 32.1621631,30.8376251 L2.83783878,30.8376251 C2.29741986,30.8376251 1.89189284,30.4308586 1.89189284,29.8887879 L1.89189284,9.01435033 Z M47.3765,10.3 L56.6795,10.3 L56.6795,12.82 L50.1065,12.82 L50.1065,16.18 L55.3985,16.18 L55.3985,18.7 L50.1065,18.7 L50.1065,25 L47.3765,25 L47.3765,10.3 Z M58.3385,11.371 C58.3385,10.426 59.0525,9.691 60.0185,9.691 C60.9845,9.691 61.6985,10.426 61.6985,11.371 C61.6985,12.316 60.9845,13.051 60.0185,13.051 C59.0525,13.051 58.3385,12.316 58.3385,11.371 Z M58.7165,14.416 L61.3205,14.416 L61.3205,25 L58.7165,25 L58.7165,14.416 Z M64.2815,10.132 L66.8855,10.132 L66.8855,25 L64.2815,25 L64.2815,10.132 Z M78.4355,25 L75.8315,25 L75.8315,17.944 C75.8315,16.873 75.3065,16.474 74.5295,16.474 C73.2485,16.474 72.2405,17.965 72.2405,21.115 L72.2405,25 L69.6365,25 L69.6365,14.416 L72.2405,14.416 L72.2405,16.117 C73.0175,14.941 73.9205,14.248 75.2855,14.248 C76.5875,14.248 77.7845,14.899 78.2465,16.432 C79.0025,15.067 80.1785,14.248 81.4805,14.248 C83.4545,14.248 84.6305,15.466 84.6305,17.503 L84.6305,25 L82.0265,25 L82.0265,17.944 C82.0265,16.873 81.5015,16.474 80.7245,16.474 C79.4645,16.474 78.4355,17.902 78.4355,20.884 L78.4355,25 Z M86.0585,14.416 L88.6835,14.416 L91.1405,21.052 L93.4505,14.416 L96.0545,14.416 L90.5945,29.284 L88.0745,29.284 L89.9015,24.328 L86.0585,14.416 Z M104.0345,10.132 C107.7515,10.132 110.9645,12.547 110.9645,17.65 C110.9645,19.372 110.6075,20.779 109.9775,21.892 L111.3845,23.278 L109.4735,25.168 L108.1925,23.908 C107.0165,24.769 105.5675,25.168 104.0345,25.168 C100.3175,25.168 97.1045,22.753 97.1045,17.65 C97.1045,12.547 100.3175,10.132 104.0345,10.132 Z M104.3705,20.086 L106.2815,18.196 L107.8775,19.813 C108.0875,19.204 108.1925,18.49 108.1925,17.65 C108.1925,14.164 106.2395,12.652 104.0345,12.652 C101.8295,12.652 99.8765,14.164 99.8765,17.65 C99.8765,21.136 101.8295,22.648 104.0345,22.648 C104.8535,22.648 105.6305,22.438 106.2815,22.018 L104.3705,20.086 Z M122.5985,25 L119.9945,25 L119.9945,23.299 C119.2175,24.412 118.0835,25.168 116.7185,25.168 C114.8285,25.168 113.4635,24.097 113.4635,21.976 L113.4635,14.416 L116.0675,14.416 L116.0675,21.199 C116.0675,22.459 116.6975,22.942 117.5795,22.942 C118.8395,22.942 119.9945,21.43 119.9945,18.637 L119.9945,14.416 L122.5985,14.416 L122.5985,25 Z M125.0135,19.708 C125.0135,16.642 126.9875,14.248 130.3895,14.248 C133.7915,14.248 135.7655,16.642 135.7655,19.708 C135.7655,22.774 133.7915,25.168 130.3895,25.168 C126.9875,25.168 125.0135,22.774 125.0135,19.708 Z M127.7435,19.708 C127.7435,21.451 128.7095,22.942 130.3895,22.942 C132.0695,22.942 133.0355,21.451 133.0355,19.708 C133.0355,17.965 132.0695,16.474 130.3895,16.474 C128.7095,16.474 127.7435,17.965 127.7435,19.708 Z M143.7245,22.69 L144.3335,24.79 C143.7455,25.063 143.1785,25.168 142.6115,25.168 C140.2175,25.168 138.7265,23.887 138.7265,21.262 L138.7265,16.642 L137.0885,16.642 L137.0885,14.416 L138.7265,14.416 L138.7265,11.77 L141.3305,10.132 L141.3305,14.416 L144.1235,14.416 L144.1235,16.642 L141.3305,16.642 L141.3305,21.22 C141.3305,22.522 141.8345,22.942 142.7165,22.942 C143.0735,22.942 143.3675,22.879 143.7245,22.69 Z M155.7575,19.477 L155.7575,20.548 L148.4705,20.548 C148.5335,21.724 149.3525,22.942 150.9695,22.942 C152.1665,22.942 152.9015,22.396 153.5315,21.304 L155.6315,22.081 C154.8125,23.95 153.3845,25.168 150.8225,25.168 C147.1895,25.168 145.7405,22.207 145.7405,19.708 C145.7405,17.209 147.1895,14.248 150.8225,14.248 C154.3505,14.248 155.7575,17.167 155.7575,19.477 Z M150.8225,16.474 C149.4995,16.474 148.7225,17.482 148.5335,18.49 L153.0905,18.49 C152.8595,17.44 152.2085,16.474 150.8225,16.474 Z"/>
    <path fill="#64EBDF" d="M22.2533784,25.832 C24.4054054,25.832 26.25,24.3613023 26.25,21.1826977 C26.25,16.6757209 22.5844595,14.0189767 20.5033784,13.7580465 L20.0540541,14.9915349 C21.2601352,15.7743256 22.2533784,17.1501395 22.1587838,17.9329302 C20.7871622,18.0515349 18.5878379,18.7868837 18.5878379,21.7282791 C18.5878379,23.9580465 19.8412163,25.832 22.2533784,25.832 Z M13.125,25.832 C15.2770271,25.832 17.1216217,24.3613023 17.1216217,21.1826977 C17.1216217,16.6757209 13.4560811,14.0189767 11.375,13.7580465 L10.9256757,14.9915349 C12.1317568,15.7743256 13.125,17.1501395 13.0304054,17.9329302 C11.6587838,18.0515349 9.4594595,18.7868837 9.4594595,21.7282791 C9.4594595,23.9580465 10.7128379,25.832 13.125,25.832 Z" transform="rotate(-180 17.855 19.795)"/>
  </g>
</svg>
