<svg xmlns="http://www.w3.org/2000/svg" width="17" height="16" viewBox="0 0 17 16">
  <path fill="#FFF" d="M1.56578947,0 C0.709946842,0 0,0.713707672 0,1.57407407 L0,14.1666712 C0,15.0270376 0.709946842,15.7407452 1.56578947,15.7407452 L15.434211,15.7407452 C16.2900536,15.7407452 17.0000004,15.0270376 17.0000004,14.1666712 L17.0000004,1.57407407 C17.0000004,0.713707672 16.2900536,2.55645005e-14 15.434211,2.55645005e-14 L1.56578947,2.55645005e-14 Z M1.56578947,1.34920635 L3.90748355,1.34920635 L2.36965461,3.14814815 L1.34210526,3.14814815 L1.34210526,1.57407407 C1.34210526,1.43782672 1.43025921,1.34920635 1.56578947,1.34920635 Z M5.67598684,1.34920635 L8.38116776,1.34920635 L6.84333882,3.14814815 L4.13815789,3.14814815 L5.67598684,1.34920635 Z M10.1496711,1.34920635 L12.8548524,1.34920635 L11.317023,3.14814815 L8.61184211,3.14814815 L10.1496711,1.34920635 Z M14.6233557,1.34920635 L15.434211,1.34920635 C15.5697412,1.34920635 15.6578952,1.43782672 15.6578952,1.57407407 L15.6578952,3.14814815 L13.0855268,3.14814815 L14.6233557,1.34920635 Z M1.34210526,4.4973545 L15.6578952,4.4973545 L15.6578952,14.1666712 C15.6578952,14.3029185 15.5697412,14.3915389 15.434211,14.3915389 L1.56578947,14.3915389 C1.43025921,14.3915389 1.34210526,14.3029185 1.34210526,14.1666712 L1.34210526,4.4973545 Z M6.73848684,5.74818122 L6.73848684,12.6839384 C8.57164605,11.5231937 10.412972,10.379404 12.2467105,9.21958122 C10.4135491,8.05883651 8.57222539,6.90800397 6.73848684,5.74818122 Z M8.02467105,8.18658386 L9.66735197,9.21958122 L8.02467105,10.2455402 L8.02467105,8.18658386 Z" opacity=".904" transform="translate(0 .143)"/>
</svg>
