<svg xmlns="http://www.w3.org/2000/svg" width="130" height="64" viewBox="0 0 130 64">
  <g fill="none">
    <path fill="#FFF" d="M43.3395031,6.5942029 L41.7263705,6.5942029 C40.3595891,6.5942029 39.1334874,7.19602069 38.2990196,8.14891151 C34.8060931,5.74315675 30.5755869,4.33333333 26.0217391,4.33333333 C14.06475,4.33333333 4.33695652,14.053 4.33695652,26 C4.33695652,37.947 14.06475,47.6666667 26.0217391,47.6666667 C37.9787283,47.6666667 47.7065217,37.947 47.7065217,26 C47.7065217,24.6987616 47.5911205,23.4239461 47.370007,22.1852343 C47.67829,22.2510664 47.9981389,22.2857143 48.326087,22.2857143 C49.5867836,22.2857143 50.7277912,21.7736929 51.5521719,20.9464236 C51.8745098,22.5811559 52.0434783,24.2708767 52.0434783,26 C52.0434783,40.3585 40.3922446,52 26.0217391,52 C11.6512337,52 0,40.3585 0,26 C0,11.6415 11.6512337,0 26.0217391,0 C32.6716384,0 38.7392486,2.49284335 43.3395031,6.5942029 Z M17.3478261,15.1666667 C19.7046752,15.2199191 21.5873226,17.144494 21.5867331,19.499976 C21.5861436,21.8554581 19.7025331,23.7790919 17.3456576,23.8311667 C15.7734766,23.8659037 14.3056515,23.0475841 13.5095794,21.6925346 C12.7135073,20.3374851 12.7139277,18.6580331 13.5106779,17.3033815 C14.3074281,15.94873 15.7756627,15.131144 17.3478261,15.1666667 Z M34.6956522,15.1666667 C37.0525013,15.2199191 38.9351487,17.144494 38.9345592,19.499976 C38.9339696,21.8554581 37.0503591,23.7790919 34.6934837,23.8311667 C33.1213027,23.8659037 31.6534776,23.0475841 30.8574055,21.6925346 C30.0613334,20.3374851 30.0617538,18.6580331 30.858504,17.3033815 C31.6552542,15.94873 33.1234888,15.131144 34.6956522,15.1666667 Z M39.0326087,28.1666667 C39.0326087,35.3463684 33.207444,41.1666667 26.0217391,41.1666667 C18.8360343,41.1666667 13.0108696,35.3463684 13.0108696,28.1666667 L39.0326087,28.1666667 Z M50.4002836,9.07039337 L54.9258034,9.07039337 C56.0713506,9.07039337 57,9.99826701 57,11.1428571 C57,12.2874473 56.0713506,13.2153209 54.9258034,13.2153209 L50.4002836,13.2153209 L50.4002836,17.73706 C50.4002836,18.8816502 49.4716341,19.8095238 48.326087,19.8095238 C47.1805398,19.8095238 46.2518904,18.8816502 46.2518904,17.73706 L46.2518904,13.2153209 L41.7263705,13.2153209 C40.5808234,13.2153209 39.6521739,12.2874473 39.6521739,11.1428571 C39.6521739,9.99826701 40.5808234,9.07039337 41.7263705,9.07039337 L46.2518904,9.07039337 L46.2518904,4.54865424 C46.2518904,3.40406411 47.1805398,2.47619048 48.326087,2.47619048 C49.4716341,2.47619048 50.4002836,3.40406411 50.4002836,4.54865424 L50.4002836,9.07039337 Z" transform="translate(4 6)"/>
    <path fill="#3F4658" d="M43.3395031,6.5942029 L41.7263705,6.5942029 C40.3595891,6.5942029 39.1334874,7.19602069 38.2990196,8.14891151 C34.8060931,5.74315675 30.5755869,4.33333333 26.0217391,4.33333333 C14.06475,4.33333333 4.33695652,14.053 4.33695652,26 C4.33695652,37.947 14.06475,47.6666667 26.0217391,47.6666667 C37.9787283,47.6666667 47.7065217,37.947 47.7065217,26 C47.7065217,24.6987616 47.5911205,23.4239461 47.370007,22.1852343 C47.67829,22.2510664 47.9981389,22.2857143 48.326087,22.2857143 C49.5867836,22.2857143 50.7277912,21.7736929 51.5521719,20.9464236 C51.8745098,22.5811559 52.0434783,24.2708767 52.0434783,26 C52.0434783,40.3585 40.3922446,52 26.0217391,52 C11.6512337,52 0,40.3585 0,26 C0,11.6415 11.6512337,0 26.0217391,0 C32.6716384,0 38.7392486,2.49284335 43.3395031,6.5942029 Z M17.3478261,15.1666667 C19.7046752,15.2199191 21.5873226,17.144494 21.5867331,19.499976 C21.5861436,21.8554581 19.7025331,23.7790919 17.3456576,23.8311667 C15.7734766,23.8659037 14.3056515,23.0475841 13.5095794,21.6925346 C12.7135073,20.3374851 12.7139277,18.6580331 13.5106779,17.3033815 C14.3074281,15.94873 15.7756627,15.131144 17.3478261,15.1666667 Z M34.6956522,15.1666667 C37.0525013,15.2199191 38.9351487,17.144494 38.9345592,19.499976 C38.9339696,21.8554581 37.0503591,23.7790919 34.6934837,23.8311667 C33.1213027,23.8659037 31.6534776,23.0475841 30.8574055,21.6925346 C30.0613334,20.3374851 30.0617538,18.6580331 30.858504,17.3033815 C31.6552542,15.94873 33.1234888,15.131144 34.6956522,15.1666667 Z M39.0326087,28.1666667 C39.0326087,35.3463684 33.207444,41.1666667 26.0217391,41.1666667 C18.8360343,41.1666667 13.0108696,35.3463684 13.0108696,28.1666667 L39.0326087,28.1666667 Z M50.4002836,9.07039337 L54.9258034,9.07039337 C56.0713506,9.07039337 57,9.99826701 57,11.1428571 C57,12.2874473 56.0713506,13.2153209 54.9258034,13.2153209 L50.4002836,13.2153209 L50.4002836,17.73706 C50.4002836,18.8816502 49.4716341,19.8095238 48.326087,19.8095238 C47.1805398,19.8095238 46.2518904,18.8816502 46.2518904,17.73706 L46.2518904,13.2153209 L41.7263705,13.2153209 C40.5808234,13.2153209 39.6521739,12.2874473 39.6521739,11.1428571 C39.6521739,9.99826701 40.5808234,9.07039337 41.7263705,9.07039337 L46.2518904,9.07039337 L46.2518904,4.54865424 C46.2518904,3.40406411 47.1805398,2.47619048 48.326087,2.47619048 C49.4716341,2.47619048 50.4002836,3.40406411 50.4002836,4.54865424 L50.4002836,9.07039337 Z" transform="translate(66 6)"/>
  </g>
</svg>
