<svg xmlns="http://www.w3.org/2000/svg" width="150" height="150" viewBox="0 0 150 150">
  <g fill="none" fill-rule="evenodd">
    <rect width="150" height="150" fill="#FFF" opacity=".042"/>
    <g fill="#3E5364" fill-rule="nonzero" opacity=".744" transform="translate(38.514 40.54)">
      <ellipse cx="48.782" cy="31.981" rx="6.208" ry="6.387"/>
      <ellipse cx="24.66" cy="31.981" rx="6.206" ry="6.387"/>
      <path d="M37.0256757,57.5665541 C43.197973,57.5665541 47.1942568,52.6023649 45.5158784,49.7280405 C43.4655405,50.9503378 40.422973,51.7256757 37.0256757,51.7256757 C33.6283784,51.7256757 30.5858108,50.9503378 28.535473,49.7280405 C26.8570946,52.6013514 30.8533784,57.5665541 37.0256757,57.5665541 Z"/>
      <path d="M36.7206081,0.035472973 C16.8800676,0.035472973 0.737837838,16.1766892 0.737837838,36.0162162 C0.737837838,55.8557432 16.8800676,71.997973 36.7206081,71.997973 C56.5601351,71.997973 72.7013514,55.8557432 72.7013514,36.0162162 C72.7013514,16.1756757 56.5611486,0.035472973 36.7206081,0.035472973 Z M36.7206081,66.2513514 C21.675,66.2513514 9.1652027,55.2050676 6.86655405,40.797973 C6.94358108,21.4570946 23.7385135,32.0858108 23.7385135,10.9631757 C24.5087838,21.7084459 33.1733108,39.2503378 66.5766892,31.2577703 C66.822973,32.8084459 66.9547297,34.3976351 66.9547297,36.0162162 C66.9547297,52.6875 53.3929054,66.2513514 36.7206081,66.2513514 Z"/>
    </g>
  </g>
</svg>
