<svg xmlns="http://www.w3.org/2000/svg" width="52" height="37" viewBox="0 0 52 37">
  <path fill="#DCDCDC" d="M395.548063,165.639349 C388.221303,165.639349 384.414261,159.964701 384.414261,153.212588 C384.414261,144.305546 391.094542,142.078785 395.260739,141.71963 C395.548063,139.349208 392.531162,135.183011 388.867782,132.812588 L390.23257,129.077377 C396.553697,129.867518 407.6875,137.912588 407.6875,151.560475 C407.6875,161.185827 402.084683,165.639349 395.548063,165.639349 Z M367.821303,165.639349 C360.494542,165.639349 356.6875,159.964701 356.6875,153.212588 C356.6875,144.305546 363.367782,142.078785 367.533979,141.71963 C367.821303,139.349208 364.804401,135.183011 361.141021,132.812588 L362.50581,129.077377 C368.826937,129.867518 379.960739,137.912588 379.960739,151.560475 C379.960739,161.185827 374.357923,165.639349 367.821303,165.639349 Z" transform="matrix(-1 0 0 1 408.375 -129)"/>
</svg>
