<svg xmlns="http://www.w3.org/2000/svg" width="116" height="57" viewBox="0 0 116 57">
  <path fill="#FFF" fill-rule="evenodd" d="M8.58,20.55 C8.0999976,20.4499995 7.73500125,20.2650013 7.485,19.995 C7.23499875,19.7249987 6.9800013,19.3700022 6.72,18.93 C6.5599992,18.6499986 6.4000008,18.2900022 6.24,17.85 C6.0799992,17.4099978 5.9200008,16.8800031 5.76,16.26 L5.28,14.16 C5.1199992,13.4599965 5.0000004,12.9300018 4.92,12.57 C4.6999989,13.6300053 4.4700012,14.6649949 4.23,15.675 C3.9899988,16.685005 3.7500012,17.6399955 3.51,18.54 C3.2699988,19.4400045 3.0300012,20.2649962 2.79,21.015 C2.5499988,21.7650037 2.3100012,22.3999974 2.07,22.92 C2.0099997,23.0600007 1.880001,23.13 1.68,23.13 C1.4599989,23.13 1.1700018,23.0400009 0.81,22.86 C0.5299986,22.7199993 0.33500055,22.550001 0.225,22.35 C0.11499945,22.149999 0.06,21.9200013 0.06,21.66 C0.06,21.4999992 0.2699979,20.8600056 0.69,19.74 C0.7900005,19.4999988 1.0099983,18.8100057 1.35,17.67 C1.6900017,16.5299943 2.1699969,14.9100105 2.79,12.81 C3.0100011,12.0899964 3.2299989,11.1000063 3.45,9.84 C3.6700011,8.5799937 3.8899989,7.0400091 4.11,5.22 C4.1500002,5.1799998 4.2499992,4.9700019 4.41,4.59 C4.5100005,4.3099986 4.6899987,4.17 4.95,4.17 C5.6900037,4.17 6.1899987,4.2999987 6.45,4.56 L6.45,5.7 C6.45,6.1800024 6.4899996,6.7399968 6.57,7.38 C6.6500004,8.0200032 6.7099998,8.5799976 6.75,9.06 C6.7900002,9.5400024 6.81,9.9499983 6.81,10.29 C6.8700003,11.0100036 6.9699993,11.6149976 7.11,12.105 C7.2500007,12.5950024 7.3699995,13.1199972 7.47,13.68 C7.6900011,15.0200067 8.0799972,16.089996 8.64,16.89 C9.6000048,14.2099866 10.384997,11.8150105 10.995,9.705 C11.6050031,7.59498945 12.0399987,5.7500079 12.3,4.17 C12.3800004,3.8499984 12.6799974,3.69 13.2,3.69 C13.9400037,3.69 14.3599995,3.9299976 14.46,4.41 C14.6000007,5.0500032 14.67,5.8799949 14.67,6.9 C14.67,7.0600008 14.665,7.2999984 14.655,7.62 C14.645,7.9400016 14.6300001,8.3599974 14.61,8.88 C14.5899999,9.1000011 14.58,9.2999991 14.58,9.48 L14.58,10.47 C14.58,10.6300008 14.5899999,10.7699994 14.61,10.89 C14.7900009,15.1300212 15.179997,18.6699858 15.78,21.51 C15.78,21.5500002 15.7849999,21.575 15.795,21.585 C15.8050001,21.595 15.81,21.6099999 15.81,21.63 C15.81,21.9700017 15.4800033,22.1499999 14.82,22.17 C14.419998,22.17 14.0000022,21.9800019 13.56,21.6 C13.159998,21.2599983 12.860001,20.7100038 12.66,19.95 C12.4399989,19.2699966 12.3200001,18.2800065 12.3,16.98 L12.3,15.75 C12.3,15.2899977 12.295,14.8450022 12.285,14.415 C12.275,13.9849978 12.265,13.5950017 12.255,13.245 C12.2449999,12.8949982 12.2300001,12.6400008 12.21,12.48 C12.1499997,12.7000011 12.0500007,13.0299978 11.91,13.47 C11.7699993,13.9100022 11.6150008,14.3949974 11.445,14.925 C11.2749991,15.4550027 11.1000009,15.9949972 10.92,16.545 C10.7399991,17.0950028 10.5800007,17.5899978 10.44,18.03 C10.0799982,19.0100049 9.8600004,19.5699993 9.78,19.71 C9.4799985,20.2700028 9.1200021,20.55 8.7,20.55 L8.58,20.55 Z M21.1772728,21.18 C20.8372711,21.18 20.5322742,21.0850009 20.2622728,20.895 C19.9922715,20.704999 19.7072743,20.5200009 19.4072728,20.34 C18.7472695,19.9599981 18.2372746,19.4600031 17.8772728,18.84 C17.517271,18.2199969 17.3372728,17.4600045 17.3372728,16.56 C17.3372728,16.1199978 17.4122721,15.595003 17.5622728,14.985 C17.7122736,14.374997 17.8472722,13.8100026 17.9672728,13.29 C18.0272731,13.0699989 18.1672717,12.7650019 18.3872728,12.375 C18.6072739,11.9849981 18.8822712,11.6050019 19.2122728,11.235 C19.5422745,10.8649982 19.9172707,10.5400014 20.3372728,10.26 C20.7572749,9.9799986 21.1872706,9.84 21.6272728,9.84 C21.8072737,9.84 21.9872719,9.8999994 22.1672728,10.02 C22.4472742,10.2000009 22.7372713,10.3499994 23.0372728,10.47 C23.3372743,10.5900006 23.6422713,10.7099994 23.9522728,10.83 C24.2622744,10.9500006 24.5672713,11.0799993 24.8672728,11.22 C25.1672743,11.3600007 25.4472715,11.5399989 25.7072728,11.76 C25.9272739,11.9400009 26.0972722,12.1599987 26.2172728,12.42 C26.3372734,12.6800013 26.4572722,12.9299988 26.5772728,13.17 C26.6772733,13.370001 26.7372727,13.574999 26.7572728,13.785 C26.7772729,13.995001 26.7872728,14.2099989 26.7872728,14.43 L26.7872728,15 C26.7672727,15.6200031 26.642274,16.1949974 26.4122728,16.725 C26.1822717,17.2550027 25.9072744,17.7699975 25.5872728,18.27 C25.427272,18.5300013 25.2172741,18.8299983 24.9572728,19.17 C24.6972715,19.5100017 24.4072744,19.8299985 24.0872728,20.13 C23.7672712,20.4300015 23.4322746,20.6849989 23.0822728,20.895 C22.7322711,21.1050011 22.3772746,21.21 22.0172728,21.21 C21.9172723,21.21 21.8122734,21.2050001 21.7022728,21.195 C21.5922723,21.185 21.4772734,21.18 21.3572728,21.18 L21.1772728,21.18 Z M24.1172728,14.01 C24.1172728,13.4299971 23.9072749,13.0100013 23.4872728,12.75 C23.0672707,12.4899987 22.6072753,12.36 22.1072728,12.36 C21.7072708,12.36 21.3672742,12.5149985 21.0872728,12.825 C20.8072714,13.1350016 20.5672738,13.5149977 20.3672728,13.965 C20.1672718,14.4150022 20.0222733,14.8949975 19.9322728,15.405 C19.8422724,15.9150026 19.7972728,16.3599981 19.7972728,16.74 C19.7972728,16.8200004 19.8122727,16.9799988 19.8422728,17.22 C19.872273,17.4600012 19.9272724,17.7099987 20.0072728,17.97 C20.0872732,18.2300013 20.2022721,18.459999 20.3522728,18.66 C20.5022736,18.860001 20.6972716,18.96 20.9372728,18.96 C21.1572739,18.96 21.3572719,18.9250004 21.5372728,18.855 C21.7172737,18.7849996 21.9172717,18.7000005 22.1372728,18.6 C22.4572744,18.399999 22.7372716,18.1300017 22.9772728,17.79 C23.217274,17.4499983 23.4122721,17.080002 23.5622728,16.68 C23.7122736,16.279998 23.8322724,15.8600022 23.9222728,15.42 C24.0122733,14.9799978 24.0772726,14.560002 24.1172728,14.16 L24.1172728,14.01 Z M34.7045457,10.71 C34.8045462,10.6699998 34.8995452,10.6400001 34.9895457,10.62 C35.0795461,10.5999999 35.1745452,10.5700002 35.2745457,10.53 C35.4545466,10.5700002 35.6495446,10.5999999 35.8595457,10.62 C36.0695467,10.6400001 36.3145443,10.6899996 36.5945457,10.77 C36.6345459,11.2300023 36.6895453,11.6699979 36.7595457,12.09 C36.829546,12.5100021 36.8645457,12.9699975 36.8645457,13.47 C36.8645457,14.8900071 36.9095452,16.3799922 36.9995457,17.94 C37.0895461,19.5000078 37.1345457,21.27999 37.1345457,23.28 C37.1345457,24.2400048 37.0645464,25.1949952 36.9245457,26.145 C36.784545,27.0950048 36.4745481,27.9899958 35.9945457,28.83 C35.8345449,29.0100009 35.6845464,29.2349987 35.5445457,29.505 C35.404545,29.7750013 35.2145469,30.0449986 34.9745457,30.315 C34.7345445,30.5850014 34.4295475,30.824999 34.0595457,31.035 C33.6895438,31.245001 33.2045487,31.3799997 32.6045457,31.44 C32.3045442,31.3399995 32.0545467,31.2550004 31.8545457,31.185 C31.6545447,31.1149996 31.5045462,30.8700021 31.4045457,30.45 C31.5645465,30.0899982 31.8195439,29.7850013 32.1695457,29.535 C32.5195474,29.2849988 32.8745439,28.9300023 33.2345457,28.47 C33.5945475,28.0099977 33.9095443,27.3450043 34.1795457,26.475 C34.449547,25.6049957 34.5845457,24.3600081 34.5845457,22.74 L34.5845457,21.465 C34.5845457,21.054998 34.5745458,20.650002 34.5545457,20.25 C34.5345456,19.849998 34.5095458,19.4400021 34.4795457,19.02 C34.4495455,18.5999979 34.404546,18.1400025 34.3445457,17.64 C34.1445447,18.0600021 33.9295468,18.4549982 33.6995457,18.825 C33.4695445,19.1950019 33.1895473,19.5299985 32.8595457,19.83 C32.529544,20.1300015 32.1395479,20.384999 31.6895457,20.595 C31.2395434,20.8050011 30.7045488,20.9499996 30.0845457,21.03 C29.8045443,20.8899993 29.5195471,20.7300009 29.2295457,20.55 C28.9395442,20.3699991 28.6745469,20.1600012 28.4345457,19.92 C28.1945445,19.6799988 27.9995464,19.4100015 27.8495457,19.11 C27.6995449,18.8099985 27.6245457,18.4700019 27.6245457,18.09 C27.6245457,17.9699994 27.6345456,17.8800003 27.6545457,17.82 C27.7945464,17.3399976 28.0245441,16.6700043 28.3445457,15.81 C28.6645473,14.9499957 29.0645433,14.0950042 29.5445457,13.245 C30.0245481,12.3949957 30.5945424,11.6600031 31.2545457,11.04 C31.914549,10.4199969 32.6645415,10.11 33.5045457,10.11 C33.6645465,10.11 33.8245449,10.1299998 33.9845457,10.17 C34.1445465,10.2100002 34.3045449,10.2599997 34.4645457,10.32 L34.7045457,10.71 Z M30.6245457,18.75 C30.9245472,18.7099998 31.2295441,18.5300016 31.5395457,18.21 C31.8495472,17.8899984 32.1495442,17.4750025 32.4395457,16.965 C32.7295471,16.4549974 33.0045444,15.8750033 33.2645457,15.225 C33.524547,14.5749967 33.7645446,13.8900036 33.9845457,13.17 C34.0045458,12.9499989 34.0395454,12.7350011 34.0895457,12.525 C34.1395459,12.3149989 34.1645457,12.1000011 34.1645457,11.88 C33.8445441,11.9000001 33.5745468,11.9699994 33.3545457,12.09 C33.1345446,12.2100006 32.9395465,12.3599991 32.7695457,12.54 C32.5995448,12.7200009 32.4445464,12.914999 32.3045457,13.125 C32.164545,13.335001 32.0145465,13.539999 31.8545457,13.74 C31.6945449,14.0800017 31.5095467,14.4349981 31.2995457,14.805 C31.0895446,15.1750018 30.8895466,15.5499981 30.6995457,15.93 C30.5095447,16.3100019 30.3495463,16.6899981 30.2195457,17.07 C30.089545,17.4500019 30.0245457,17.8199982 30.0245457,18.18 C30.0245457,18.5000016 30.2245437,18.6899997 30.6245457,18.75 Z M49.6418185,20.46 C49.7018188,20.6200008 49.7618182,20.7849991 49.8218185,20.955 C49.8818188,21.1250009 49.9118185,21.2899992 49.9118185,21.45 C49.9118185,21.6100008 49.866819,21.7399995 49.7768185,21.84 C49.6868181,21.9400005 49.5768192,22.0199997 49.4468185,22.08 C49.3168179,22.1400003 49.1818192,22.1849999 49.0418185,22.215 C48.9018178,22.2450002 48.7718191,22.26 48.6518185,22.26 C48.2518165,22.26 47.9218198,22.0350022 47.6618185,21.585 C47.4018172,21.1349978 47.1918193,20.5750033 47.0318185,19.905 C46.8718177,19.2349966 46.7368191,18.5250037 46.6268185,17.775 C46.516818,17.0249963 46.411819,16.350003 46.3118185,15.75 C46.2518182,16.1700021 46.0568202,16.6999968 45.7268185,17.34 C45.3968169,17.9800032 44.981821,18.594997 44.4818185,19.185 C43.981816,19.775003 43.4318215,20.2799979 42.8318185,20.7 C42.2318155,21.1200021 41.6318215,21.33 41.0318185,21.33 C40.5518161,21.33 40.1568201,21.2350009 39.8468185,21.045 C39.536817,20.854999 39.3018193,20.6200014 39.1418185,20.34 C38.9818177,20.0599986 38.8718188,19.7450017 38.8118185,19.395 C38.7518182,19.0449983 38.7218185,18.7200015 38.7218185,18.42 C38.7218185,17.7599967 38.8868169,16.9450049 39.2168185,15.975 C39.5468202,15.0049951 39.9968157,14.0600046 40.5668185,13.14 C41.1368214,12.2199954 41.7968148,11.4350032 42.5468185,10.785 C43.2968223,10.1349968 44.0918143,9.81 44.9318185,9.81 C45.1118194,9.81 45.3168174,9.8399997 45.5468185,9.9 C45.7768197,9.9600003 46.0118173,10.0349996 46.2518185,10.125 C46.4918197,10.2150004 46.7218174,10.3249994 46.9418185,10.455 C47.1618196,10.5850007 47.3518177,10.7099994 47.5118185,10.83 C47.8518202,11.1100014 48.0818179,11.4899976 48.2018185,11.97 C48.3218191,12.4500024 48.4118182,12.9499974 48.4718185,13.47 C48.6118192,14.470005 48.7218181,15.374996 48.8018185,16.185 C48.8818189,16.995004 49.0318174,17.8499955 49.2518185,18.75 L49.4318185,19.86 L49.6418185,20.46 Z M41.1818185,18.9 C41.1818185,18.9200001 41.1868185,18.935 41.1968185,18.945 C41.2068186,18.9550001 41.2118185,18.9699999 41.2118185,18.99 C41.4718198,18.9699999 41.7718168,18.7950016 42.1118185,18.465 C42.4518202,18.1349984 42.7918168,17.7400023 43.1318185,17.28 C43.4718202,16.8199977 43.7868171,16.3350026 44.0768185,15.825 C44.36682,15.3149975 44.5818178,14.860002 44.7218185,14.46 C44.8018189,14.2799991 44.896818,14.0800011 45.0068185,13.86 C45.1168191,13.6399989 45.226818,13.4150011 45.3368185,13.185 C45.4468191,12.9549989 45.5368182,12.740001 45.6068185,12.54 C45.6768189,12.339999 45.7118185,12.1700007 45.7118185,12.03 C45.611818,11.9899998 45.5218189,11.9500002 45.4418185,11.91 C45.3618181,11.8699998 45.271819,11.85 45.1718185,11.85 C44.7318163,11.85 44.3418202,12.0199983 44.0018185,12.36 C43.6618168,12.7000017 43.3668198,13.0799979 43.1168185,13.5 C42.8668173,13.9200021 42.6618193,14.3249981 42.5018185,14.715 C42.3418177,15.1050019 42.2318188,15.3499995 42.1718185,15.45 C41.8918171,15.9500025 41.6568195,16.4899971 41.4668185,17.07 C41.2768176,17.6500029 41.1818185,18.2099973 41.1818185,18.75 L41.1818185,18.9 Z M67.4290914,13.08 C67.4290914,13.880004 67.4990907,14.6349964 67.6390914,15.345 C67.7790921,16.0550036 67.8990909,16.809996 67.9990914,17.61 C68.0390916,18.010002 68.1540904,18.4199979 68.3440914,18.84 C68.5340923,19.2600021 68.6290914,19.6799979 68.6290914,20.1 C68.6290914,20.5600023 68.4940927,20.9099988 68.2240914,21.15 C67.95409,21.3900012 67.6290933,21.51 67.2490914,21.51 C66.8290893,21.51 66.5040925,21.3150019 66.2740914,20.925 C66.0440902,20.534998 65.8740919,20.0850026 65.7640914,19.575 C65.6540908,19.0649975 65.5790916,18.5650025 65.5390914,18.075 C65.4990912,17.5849975 65.4490917,17.240001 65.3890914,17.04 C65.2690908,16.7199984 65.1890916,16.3950017 65.1490914,16.065 C65.1090912,15.7349983 65.0740915,15.4100016 65.0440914,15.09 L64.9540914,14.13 C64.9240912,13.8099984 64.8590919,13.4800017 64.7590914,13.14 C64.5790905,13.4800017 64.3840924,13.844998 64.1740914,14.235 C63.9640903,14.625002 63.7540924,15.024998 63.5440914,15.435 C63.3340903,15.8450021 63.1290924,16.244998 62.9290914,16.635 C62.7290904,17.0250019 62.5590921,17.3799984 62.4190914,17.7 C62.2590906,18.0400017 62.1340918,18.3649984 62.0440914,18.675 C61.9540909,18.9850015 61.8690918,19.2899985 61.7890914,19.59 C61.709091,19.8900015 61.6190919,20.1899985 61.5190914,20.49 C61.4190909,20.7900015 61.2790923,21.1099983 61.0990914,21.45 C60.8590902,21.5700006 60.5990928,21.63 60.3190914,21.63 C59.9390895,21.63 59.6440924,21.4900014 59.4340914,21.21 C59.2240903,20.9299986 59.0640919,20.5800021 58.9540914,20.16 C58.8440908,19.7399979 58.7640916,19.3000023 58.7140914,18.84 C58.6640911,18.3799977 58.6090917,17.9700018 58.5490914,17.61 C58.5090912,17.2299981 58.4540917,16.8200022 58.3840914,16.38 C58.314091,15.9399978 58.2240919,15.5050022 58.1140914,15.075 C58.0040908,14.6449979 57.884092,14.2400019 57.7540914,13.86 C57.6240907,13.4799981 57.4790922,13.1700012 57.3190914,12.93 C57.03909,13.1500011 56.7940924,13.459998 56.5840914,13.86 C56.3740903,14.260002 56.1840922,14.6749979 56.0140914,15.105 C55.8440905,15.5350021 55.699092,15.9549979 55.5790914,16.365 C55.4590908,16.775002 55.3490919,17.0999988 55.2490914,17.34 C54.9890901,17.8000023 54.8140918,18.2649976 54.7240914,18.735 C54.6340909,19.2050023 54.5340919,19.634998 54.4240914,20.025 C54.3140908,20.415002 54.1440925,20.7349988 53.9140914,20.985 C53.6840902,21.2350013 53.2990941,21.36 52.7590914,21.36 C52.5990906,21.36 52.4440921,21.3050005 52.2940914,21.195 C52.1440906,21.0849995 52.0190919,20.9500008 51.9190914,20.79 C51.8190909,20.6299992 51.7390917,20.4600009 51.6790914,20.28 C51.6190911,20.0999991 51.5890914,19.9300008 51.5890914,19.77 C51.6290916,19.569999 51.6540913,19.370001 51.6640914,19.17 C51.6740914,18.969999 51.6790914,18.7600011 51.6790914,18.54 C51.6790914,18.4799997 51.6890913,18.3300012 51.7090914,18.09 C51.7290915,17.8499988 51.7490913,17.5950013 51.7690914,17.325 C51.7890915,17.0549987 51.8090913,16.8000012 51.8290914,16.56 C51.8490915,16.3199988 51.8590914,16.1700003 51.8590914,16.11 C51.8590914,14.9899944 51.8490915,14.1850024 51.8290914,13.695 C51.8090913,13.2049976 51.7890915,12.8700009 51.7690914,12.69 C51.7490913,12.5099991 51.7290915,12.4150001 51.7090914,12.405 C51.6890913,12.395 51.6790914,12.3100008 51.6790914,12.15 C51.6790914,11.9299989 51.6440917,11.720001 51.5740914,11.52 C51.504091,11.319999 51.4690914,11.1100011 51.4690914,10.89 C51.4690914,10.6099986 51.5890902,10.370001 51.8290914,10.17 C52.0690926,9.969999 52.32909,9.87 52.6090914,9.87 C52.9690932,9.87 53.2490904,9.9599991 53.4490914,10.14 C53.6490924,10.3200009 53.7940909,10.5449986 53.8840914,10.815 C53.9740918,11.0850014 54.0290913,11.3749985 54.0490914,11.685 C54.0690915,11.9950015 54.0790914,12.2699988 54.0790914,12.51 C54.0790914,12.7300011 54.0640915,12.9799986 54.0340914,13.26 C54.0040912,13.5400014 53.9890914,13.7999988 53.9890914,14.04 C53.9890914,14.1600006 54.0090912,14.319999 54.0490914,14.52 C54.169092,14.2599987 54.3040906,13.9700016 54.4540914,13.65 C54.6040921,13.3299984 54.7640905,13.0050016 54.9340914,12.675 C55.1040922,12.3449984 55.2790905,12.0300015 55.4590914,11.73 C55.6390923,11.4299985 55.8190905,11.1700011 55.9990914,10.95 C56.2390926,10.6499985 56.5190898,10.3350016 56.8390914,10.005 C57.159093,9.67499835 57.5190894,9.51 57.9190914,9.51 C58.3590936,9.51 58.6990902,9.609999 58.9390914,9.81 C59.1790926,10.010001 59.3590908,10.2599985 59.4790914,10.56 C59.599092,10.8600015 59.6840911,11.1949982 59.7340914,11.565 C59.7840916,11.9350018 59.849091,12.2799984 59.9290914,12.6 C60.1090923,13.1800029 60.2740906,13.8299964 60.4240914,14.55 C60.5740921,15.2700036 60.7190907,15.9199971 60.8590914,16.5 C60.8990916,16.3599993 60.9640909,16.1750011 61.0540914,15.945 C61.1440918,15.7149988 61.2390909,15.4750012 61.3390914,15.225 C61.4390919,14.9749987 61.5390909,14.745001 61.6390914,14.535 C61.7390919,14.324999 61.8190911,14.1600006 61.8790914,14.04 C62.0590923,13.6599981 62.2640902,13.2450022 62.4940914,12.795 C62.7240925,12.3449978 62.9940898,11.9250019 63.3040914,11.535 C63.6140929,11.1449981 63.9740893,10.8100014 64.3840914,10.53 C64.7940934,10.2499986 65.2690887,10.0900002 65.8090914,10.05 C66.0490926,10.1700006 66.2690904,10.2649997 66.4690914,10.335 C66.6690924,10.4050003 66.8390907,10.5149993 66.9790914,10.665 C67.1190921,10.8150007 67.229091,11.0399985 67.3090914,11.34 C67.3890918,11.6400015 67.4290914,12.0699972 67.4290914,12.63 L67.4290914,13.08 Z M72.9163642,11.79 L72.9163642,12.735 C72.9163642,12.9650011 72.9213641,13.179999 72.9313642,13.38 C72.9413642,13.580001 72.9463642,13.7099997 72.9463642,13.77 C73.1263651,13.4099982 73.331363,13.0500018 73.5613642,12.69 C73.7913653,12.3299982 74.1663616,11.8200033 74.6863642,11.16 C74.7263644,11.1199998 74.8163635,11.0400006 74.9563642,10.92 C75.0963649,10.7999994 75.281363,10.6700007 75.5113642,10.53 C75.7413653,10.3899993 76.0013627,10.2700005 76.2913642,10.17 C76.5813656,10.0699995 76.8863626,10.02 77.2063642,10.02 C77.8063672,10.02 78.2913623,10.1849983 78.6613642,10.515 C79.031366,10.8450017 79.3213631,11.2499976 79.5313642,11.73 C79.7413652,12.2100024 79.8863638,12.7299972 79.9663642,13.29 C80.0463646,13.8500028 80.0863642,14.3499978 80.0863642,14.79 C80.0863642,15.0300012 80.0663644,15.3699978 80.0263642,15.81 C79.986364,16.2500022 79.9063648,16.7199975 79.7863642,17.22 C79.6663636,17.7200025 79.5013652,18.2149975 79.2913642,18.705 C79.0813631,19.1950025 78.8063659,19.5999984 78.4663642,19.92 C78.0063619,20.3400021 77.4663673,20.6599989 76.8463642,20.88 C76.2263611,21.1000011 75.6663667,21.21 75.1663642,21.21 C74.6663617,21.21 74.1713666,21.1700004 73.6813642,21.09 C73.1913617,21.0099996 72.7163665,20.9000007 72.2563642,20.76 C72.1363636,20.6999997 72.0213647,20.5850009 71.9113642,20.415 C71.8013636,20.2449991 71.6913647,20.0500011 71.5813642,19.83 C71.4713636,19.6099989 71.3763646,19.3800012 71.2963642,19.14 C71.2163638,18.8999988 71.1463645,18.6700011 71.0863642,18.45 C71.0263639,18.3899997 70.9663645,18.1950017 70.9063642,17.865 C70.8463639,17.5349984 70.7913644,17.1450023 70.7413642,16.695 C70.6913639,16.2449978 70.6513643,15.7750025 70.6213642,15.285 C70.591364,14.7949975 70.5763642,14.3600019 70.5763642,13.98 C70.5763642,12.2999916 70.6063639,10.6250083 70.6663642,8.955 C70.7263645,7.28499165 70.876363,5.4700098 71.1163642,3.51 C71.1163642,3.1299981 71.136364,2.7600018 71.1763642,2.4 C71.2163644,2.0399982 71.2963636,1.660002 71.4163642,1.26 C71.5163647,0.9599985 71.7413624,0.77500035 72.0913642,0.705 C72.4413659,0.63499965 72.736363,0.6 72.9763642,0.6 C73.1563651,0.6 73.3263634,0.6399996 73.4863642,0.72 C73.646365,0.8000004 73.746364,0.939999 73.7863642,1.14 C73.6863637,2.4200064 73.5463651,3.6299943 73.3663642,4.77 C73.1863633,5.9100057 73.0763644,7.1199936 73.0363642,8.4 L72.9163642,11.79 Z M74.4463642,15.39 C74.3463637,15.6900015 74.2513646,15.9649987 74.1613642,16.215 C74.0713637,16.4650012 73.9913645,16.7199987 73.9213642,16.98 C73.8513638,17.2400013 73.7913644,17.5149986 73.7413642,17.805 C73.6913639,18.0950015 73.6563643,18.4199982 73.6363642,18.78 C73.8563653,19.0200012 74.0663632,19.1599998 74.2663642,19.2 C74.4663652,19.2400002 74.7263626,19.26 75.0463642,19.26 C75.5463667,19.1999997 75.9513626,19.0100016 76.2613642,18.69 C76.5713657,18.3699984 76.8163633,17.9800023 76.9963642,17.52 C77.1763651,17.0599977 77.2963639,16.5650026 77.3563642,16.035 C77.4163645,15.5049973 77.4463642,15.0100023 77.4463642,14.55 C77.4463642,14.3699991 77.4413642,14.1600012 77.4313642,13.92 C77.4213641,13.6799988 77.3913644,13.4500011 77.3413642,13.23 C77.2913639,13.0099989 77.2263646,12.8200008 77.1463642,12.66 C77.0663638,12.4999992 76.9663648,12.42 76.8463642,12.42 C76.7263636,12.42 76.5513653,12.519999 76.3213642,12.72 C76.091363,12.920001 75.8563654,13.1649985 75.6163642,13.455 C75.376363,13.7450015 75.1513652,14.0499984 74.9413642,14.37 C74.7313631,14.6900016 74.5863646,14.9699988 74.5063642,15.21 L74.4463642,15.39 Z M85.483637,21.18 C85.1436353,21.18 84.8386384,21.0850009 84.568637,20.895 C84.2986357,20.704999 84.0136385,20.5200009 83.713637,20.34 C83.0536337,19.9599981 82.5436388,19.4600031 82.183637,18.84 C81.8236352,18.2199969 81.643637,17.4600045 81.643637,16.56 C81.643637,16.1199978 81.7186363,15.595003 81.868637,14.985 C82.0186378,14.374997 82.1536364,13.8100026 82.273637,13.29 C82.3336373,13.0699989 82.4736359,12.7650019 82.693637,12.375 C82.9136381,11.9849981 83.1886354,11.6050019 83.518637,11.235 C83.8486387,10.8649982 84.2236349,10.5400014 84.643637,10.26 C85.0636391,9.9799986 85.4936348,9.84 85.933637,9.84 C86.1136379,9.84 86.2936361,9.8999994 86.473637,10.02 C86.7536384,10.2000009 87.0436355,10.3499994 87.343637,10.47 C87.6436385,10.5900006 87.9486355,10.7099994 88.258637,10.83 C88.5686386,10.9500006 88.8736355,11.0799993 89.173637,11.22 C89.4736385,11.3600007 89.7536357,11.5399989 90.013637,11.76 C90.2336381,11.9400009 90.4036364,12.1599987 90.523637,12.42 C90.6436376,12.6800013 90.7636364,12.9299988 90.883637,13.17 C90.9836375,13.370001 91.0436369,13.574999 91.063637,13.785 C91.0836371,13.995001 91.093637,14.2099989 91.093637,14.43 L91.093637,15 C91.0736369,15.6200031 90.9486382,16.1949974 90.718637,16.725 C90.4886359,17.2550027 90.2136386,17.7699975 89.893637,18.27 C89.7336362,18.5300013 89.5236383,18.8299983 89.263637,19.17 C89.0036357,19.5100017 88.7136386,19.8299985 88.393637,20.13 C88.0736354,20.4300015 87.7386388,20.6849989 87.388637,20.895 C87.0386353,21.1050011 86.6836388,21.21 86.323637,21.21 C86.2236365,21.21 86.1186376,21.2050001 86.008637,21.195 C85.8986365,21.185 85.7836376,21.18 85.663637,21.18 L85.483637,21.18 Z M88.423637,14.01 C88.423637,13.4299971 88.2136391,13.0100013 87.793637,12.75 C87.3736349,12.4899987 86.9136395,12.36 86.413637,12.36 C86.013635,12.36 85.6736384,12.5149985 85.393637,12.825 C85.1136356,13.1350016 84.873638,13.5149977 84.673637,13.965 C84.473636,14.4150022 84.3286375,14.8949975 84.238637,15.405 C84.1486366,15.9150026 84.103637,16.3599981 84.103637,16.74 C84.103637,16.8200004 84.1186369,16.9799988 84.148637,17.22 C84.1786372,17.4600012 84.2336366,17.7099987 84.313637,17.97 C84.3936374,18.2300013 84.5086363,18.459999 84.658637,18.66 C84.8086378,18.860001 85.0036358,18.96 85.243637,18.96 C85.4636381,18.96 85.6636361,18.9250004 85.843637,18.855 C86.0236379,18.7849996 86.2236359,18.7000005 86.443637,18.6 C86.7636386,18.399999 87.0436358,18.1300017 87.283637,17.79 C87.5236382,17.4499983 87.7186363,17.080002 87.868637,16.68 C88.0186378,16.279998 88.1386366,15.8600022 88.228637,15.42 C88.3186375,14.9799978 88.3836368,14.560002 88.423637,14.16 L88.423637,14.01 Z M96.0409099,21.18 C95.7009082,21.18 95.3959112,21.0850009 95.1259099,20.895 C94.8559085,20.704999 94.5709114,20.5200009 94.2709099,20.34 C93.6109066,19.9599981 93.1009117,19.4600031 92.7409099,18.84 C92.3809081,18.2199969 92.2009099,17.4600045 92.2009099,16.56 C92.2009099,16.1199978 92.2759091,15.595003 92.4259099,14.985 C92.5759106,14.374997 92.7109093,13.8100026 92.8309099,13.29 C92.8909102,13.0699989 93.0309088,12.7650019 93.2509099,12.375 C93.470911,11.9849981 93.7459082,11.6050019 94.0759099,11.235 C94.4059115,10.8649982 94.7809078,10.5400014 95.2009099,10.26 C95.620912,9.9799986 96.0509077,9.84 96.4909099,9.84 C96.6709108,9.84 96.850909,9.8999994 97.0309099,10.02 C97.3109113,10.2000009 97.6009084,10.3499994 97.9009099,10.47 C98.2009114,10.5900006 98.5059083,10.7099994 98.8159099,10.83 C99.1259114,10.9500006 99.4309084,11.0799993 99.7309099,11.22 C100.030911,11.3600007 100.310909,11.5399989 100.57091,11.76 C100.790911,11.9400009 100.960909,12.1599987 101.08091,12.42 C101.20091,12.6800013 101.320909,12.9299988 101.44091,13.17 C101.54091,13.370001 101.60091,13.574999 101.62091,13.785 C101.64091,13.995001 101.65091,14.2099989 101.65091,14.43 L101.65091,15 C101.63091,15.6200031 101.505911,16.1949974 101.27591,16.725 C101.045909,17.2550027 100.770911,17.7699975 100.45091,18.27 C100.290909,18.5300013 100.080911,18.8299983 99.8209099,19.17 C99.5609086,19.5100017 99.2709115,19.8299985 98.9509099,20.13 C98.6309083,20.4300015 98.2959116,20.6849989 97.9459099,20.895 C97.5959081,21.1050011 97.2409117,21.21 96.8809099,21.21 C96.7809094,21.21 96.6759104,21.2050001 96.5659099,21.195 C96.4559093,21.185 96.3409105,21.18 96.2209099,21.18 L96.0409099,21.18 Z M98.9809099,14.01 C98.9809099,13.4299971 98.770912,13.0100013 98.3509099,12.75 C97.9309078,12.4899987 97.4709124,12.36 96.9709099,12.36 C96.5709079,12.36 96.2309113,12.5149985 95.9509099,12.825 C95.6709085,13.1350016 95.4309109,13.5149977 95.2309099,13.965 C95.0309089,14.4150022 94.8859103,14.8949975 94.7959099,15.405 C94.7059094,15.9150026 94.6609099,16.3599981 94.6609099,16.74 C94.6609099,16.8200004 94.6759097,16.9799988 94.7059099,17.22 C94.73591,17.4600012 94.7909095,17.7099987 94.8709099,17.97 C94.9509103,18.2300013 95.0659091,18.459999 95.2159099,18.66 C95.3659106,18.860001 95.5609087,18.96 95.8009099,18.96 C96.020911,18.96 96.220909,18.9250004 96.4009099,18.855 C96.5809108,18.7849996 96.7809088,18.7000005 97.0009099,18.6 C97.3209115,18.399999 97.6009087,18.1300017 97.8409099,17.79 C98.0809111,17.4499983 98.2759091,17.080002 98.4259099,16.68 C98.5759106,16.279998 98.6959094,15.8600022 98.7859099,15.42 C98.8759103,14.9799978 98.9409097,14.560002 98.9809099,14.16 L98.9809099,14.01 Z M106.598183,21.18 C106.258181,21.18 105.953184,21.0850009 105.683183,20.895 C105.413181,20.704999 105.128184,20.5200009 104.828183,20.34 C104.168179,19.9599981 103.658185,19.4600031 103.298183,18.84 C102.938181,18.2199969 102.758183,17.4600045 102.758183,16.56 C102.758183,16.1199978 102.833182,15.595003 102.983183,14.985 C103.133183,14.374997 103.268182,13.8100026 103.388183,13.29 C103.448183,13.0699989 103.588182,12.7650019 103.808183,12.375 C104.028184,11.9849981 104.303181,11.6050019 104.633183,11.235 C104.963184,10.8649982 105.338181,10.5400014 105.758183,10.26 C106.178185,9.9799986 106.608181,9.84 107.048183,9.84 C107.228184,9.84 107.408182,9.8999994 107.588183,10.02 C107.868184,10.2000009 108.158181,10.3499994 108.458183,10.47 C108.758184,10.5900006 109.063181,10.7099994 109.373183,10.83 C109.683184,10.9500006 109.988181,11.0799993 110.288183,11.22 C110.588184,11.3600007 110.868181,11.5399989 111.128183,11.76 C111.348184,11.9400009 111.518182,12.1599987 111.638183,12.42 C111.758183,12.6800013 111.878182,12.9299988 111.998183,13.17 C112.098183,13.370001 112.158183,13.574999 112.178183,13.785 C112.198183,13.995001 112.208183,14.2099989 112.208183,14.43 L112.208183,15 C112.188183,15.6200031 112.063184,16.1949974 111.833183,16.725 C111.603182,17.2550027 111.328184,17.7699975 111.008183,18.27 C110.848182,18.5300013 110.638184,18.8299983 110.378183,19.17 C110.118181,19.5100017 109.828184,19.8299985 109.508183,20.13 C109.188181,20.4300015 108.853184,20.6849989 108.503183,20.895 C108.153181,21.1050011 107.798185,21.21 107.438183,21.21 C107.338182,21.21 107.233183,21.2050001 107.123183,21.195 C107.013182,21.185 106.898183,21.18 106.778183,21.18 L106.598183,21.18 Z M109.538183,14.01 C109.538183,13.4299971 109.328185,13.0100013 108.908183,12.75 C108.488181,12.4899987 108.028185,12.36 107.528183,12.36 C107.128181,12.36 106.788184,12.5149985 106.508183,12.825 C106.228181,13.1350016 105.988184,13.5149977 105.788183,13.965 C105.588182,14.4150022 105.443183,14.8949975 105.353183,15.405 C105.263182,15.9150026 105.218183,16.3599981 105.218183,16.74 C105.218183,16.8200004 105.233183,16.9799988 105.263183,17.22 C105.293183,17.4600012 105.348182,17.7099987 105.428183,17.97 C105.508183,18.2300013 105.623182,18.459999 105.773183,18.66 C105.923183,18.860001 106.118182,18.96 106.358183,18.96 C106.578184,18.96 106.778182,18.9250004 106.958183,18.855 C107.138184,18.7849996 107.338182,18.7000005 107.558183,18.6 C107.878184,18.399999 108.158182,18.1300017 108.398183,17.79 C108.638184,17.4499983 108.833182,17.080002 108.983183,16.68 C109.133183,16.279998 109.253182,15.8600022 109.343183,15.42 C109.433183,14.9799978 109.498183,14.560002 109.538183,14.16 L109.538183,14.01 Z M4.29,50.67 C4.29,51.2100027 4.32499965,51.7449973 4.395,52.275 C4.46500035,52.8050026 4.5,53.3499972 4.5,53.91 C4.5,54.3500022 4.35500145,54.6799989 4.065,54.9 C3.77499855,55.1200011 3.4400019,55.23 3.06,55.23 C2.7199983,55.23 2.4600009,55.1850005 2.28,55.095 C2.0999991,55.0049996 1.96500045,54.8850007 1.875,54.735 C1.78499955,54.5849992 1.7300001,54.4150009 1.71,54.225 C1.6899999,54.034999 1.68,53.8300011 1.68,53.61 C1.68,52.8899964 1.68499995,52.130004 1.695,51.33 C1.70500005,50.529996 1.71,49.7250041 1.71,48.915 C1.71,48.1049959 1.71499995,47.3100039 1.725,46.53 C1.73500005,45.7499961 1.74,45.0100035 1.74,44.31 C1.74,42.9899934 1.70500035,41.6850065 1.635,40.395 C1.56499965,39.1049935 1.53,37.7400072 1.53,36.3 C1.53,36.0799989 1.5799995,35.8400013 1.68,35.58 C1.880001,35.3599989 2.10499875,35.1950006 2.355,35.085 C2.60500125,34.9749994 2.8699986,34.8900003 3.15,34.83 C3.6700026,34.9100004 4.03499895,35.1049984 4.245,35.415 C4.45500105,35.7250016 4.56,36.1899969 4.56,36.81 C4.56,39.1100115 4.53500025,41.1099915 4.485,42.81 C4.43499975,44.5100085 4.3800003,46.059993 4.32,47.46 C4.720002,47.1199983 5.11499805,46.7600019 5.505,46.38 C5.89500195,45.9999981 6.2399985,45.6000021 6.54,45.18 C6.6400005,44.8999986 6.7699992,44.6150014 6.93,44.325 C7.0900008,44.0349985 7.28499885,43.7750012 7.515,43.545 C7.74500115,43.3149988 7.99499865,43.1250008 8.265,42.975 C8.53500135,42.8249992 8.8299984,42.75 9.15,42.75 C9.2300004,42.7900002 9.33499935,42.8299998 9.465,42.87 C9.59500065,42.9100002 9.7099995,42.9599997 9.81,43.02 C9.9100005,43.0800003 9.9999996,43.1549995 10.08,43.245 C10.1600004,43.3350004 10.2,43.4599992 10.2,43.62 C10.2,43.8400011 10.0600014,44.1799977 9.78,44.64 C9.4999986,45.1000023 9.1700019,45.5899974 8.79,46.11 C8.4099981,46.6300026 8.020002,47.1349975 7.62,47.625 C7.219998,48.1150025 6.8900013,48.5099985 6.63,48.81 C7.030002,49.4500032 7.5099972,49.9999977 8.07,50.46 C8.6300028,50.9200023 9.1699974,51.3249983 9.69,51.675 C10.2100026,52.0250018 10.6499982,52.3299987 11.01,52.59 C11.3700018,52.8500013 11.55,53.0899989 11.55,53.31 C11.55,53.5700013 11.4850007,53.7799992 11.355,53.94 C11.2249993,54.1000008 11.0700009,54.2199996 10.89,54.3 C10.7099991,54.3800004 10.520001,54.4349999 10.32,54.465 C10.119999,54.4950002 9.9500007,54.51 9.81,54.51 C9.5299986,54.51 9.1600023,54.3400017 8.7,54 C8.2399977,53.6599983 7.75500255,53.2600023 7.245,52.8 C6.73499745,52.3399977 6.2200026,51.8700024 5.7,51.39 C5.1799974,50.9099976 4.7100021,50.5300014 4.29,50.25 L4.29,50.67 Z M12.4772728,50.04 C12.4772728,48.8999943 12.4522731,47.7200061 12.4022728,46.5 C12.3522726,45.2799939 12.3272728,44.070006 12.3272728,42.87 C12.3272728,42.1499964 12.3372727,41.3950039 12.3572728,40.605 C12.3772729,39.8149961 12.4072726,39.0500037 12.4472728,38.31 C12.487273,37.5699963 12.5522724,36.8650033 12.6422728,36.195 C12.7322733,35.5249966 12.8472721,34.9500024 12.9872728,34.47 C13.3272745,34.3699995 13.6172716,34.32 13.8572728,34.32 C14.2772749,34.32 14.5872718,34.4749985 14.7872728,34.785 C14.9872738,35.0950016 15.0872728,35.449998 15.0872728,35.85 C15.0872728,36.3500025 15.0472732,36.794998 14.9672728,37.185 C14.8872724,37.575002 14.8372729,37.9899978 14.8172728,38.43 C14.7772726,39.3100044 14.742273,40.1249962 14.7122728,40.875 C14.6822727,41.6250038 14.6622729,42.3499965 14.6522728,43.05 C14.6422728,43.7500035 14.6322729,44.4349967 14.6222728,45.105 C14.6122728,45.7750033 14.6072728,46.4599965 14.6072728,47.16 C14.8272739,46.6199973 15.0772714,46.1000025 15.3572728,45.6 C15.6372742,45.0999975 15.9322713,44.655002 16.2422728,44.265 C16.5522744,43.874998 16.8822711,43.5650012 17.2322728,43.335 C17.5822746,43.1049988 17.9272711,42.99 18.2672728,42.99 C18.8072755,43.0300002 19.2522711,43.2249982 19.6022728,43.575 C19.9522746,43.9250017 20.2272718,44.3399976 20.4272728,44.82 C20.6272738,45.3000024 20.7672724,45.7899975 20.8472728,46.29 C20.9272732,46.7900025 20.9672728,47.1999984 20.9672728,47.52 C21.0472732,47.8400016 21.1022727,48.2049979 21.1322728,48.615 C21.162273,49.025002 21.1972726,49.3999983 21.2372728,49.74 C21.3172732,50.4000033 21.4572718,51.0749965 21.6572728,51.765 C21.8572738,52.4550034 21.9772726,53.0899971 22.0172728,53.67 C21.9572725,53.870001 21.8272738,54.0499992 21.6272728,54.21 C21.4272718,54.3700008 21.2472736,54.45 21.0872728,54.45 C20.5872703,54.45 20.1872743,54.2100024 19.8872728,53.73 C19.5872713,53.2499976 19.3572736,52.6950032 19.1972728,52.065 C19.037272,51.4349969 18.9322731,50.8000032 18.8822728,50.16 C18.8322726,49.5199968 18.8072728,49.0500015 18.8072728,48.75 C18.8072728,48.5099988 18.7822731,48.2100018 18.7322728,47.85 C18.6822726,47.4899982 18.6222732,47.1450017 18.5522728,46.815 C18.4822725,46.4849983 18.4072732,46.2050011 18.3272728,45.975 C18.2472724,45.7449989 18.1672732,45.63 18.0872728,45.63 C17.8472716,45.7100004 17.6172739,45.8999985 17.3972728,46.2 C17.1772717,46.5000015 16.9722738,46.8649978 16.7822728,47.295 C16.5922719,47.7250022 16.4172736,48.1799976 16.2572728,48.66 C16.097272,49.1400024 15.9622734,49.5999978 15.8522728,50.04 C15.7422723,50.4800022 15.6522732,50.8699983 15.5822728,51.21 C15.5122725,51.5500017 15.4672729,51.7799994 15.4472728,51.9 L15.4472728,52.05 C15.4472728,52.0900002 15.4422729,52.115 15.4322728,52.125 C15.4222728,52.135 15.4172728,52.1599998 15.4172728,52.2 L15.4172728,52.32 C15.3972727,52.5400011 15.372273,52.7599989 15.3422728,52.98 C15.3122727,53.2000011 15.2672731,53.404999 15.2072728,53.595 C15.1472725,53.7850009 15.0672733,53.9399994 14.9672728,54.06 C14.8672723,54.1800006 14.7472735,54.24 14.6072728,54.24 C14.0872702,54.24 13.6822743,54.1300011 13.3922728,53.91 C13.1022714,53.6899989 12.8872735,53.4050018 12.7472728,53.055 C12.6072721,52.7049983 12.5272729,52.3150021 12.5072728,51.885 C12.4872727,51.4549978 12.4772728,51.0200022 12.4772728,50.58 L12.4772728,50.04 Z M23.5745457,45.6 C23.5745457,45.0599973 23.5945455,44.5400025 23.6345457,44.04 C23.6745459,43.5399975 23.7745449,43.0500024 23.9345457,42.57 C23.9545458,42.5299998 24.0095452,42.4850002 24.0995457,42.435 C24.1895461,42.3849998 24.2945451,42.3400002 24.4145457,42.3 C24.474546,42.2799999 24.5395453,42.2600001 24.6095457,42.24 C24.679546,42.2199999 24.7645452,42.2000001 24.8645457,42.18 C25.1845473,42.2200002 25.5045441,42.339999 25.8245457,42.54 C26.1445473,42.740001 26.3045457,43.0299981 26.3045457,43.41 C26.3045457,43.7300016 26.274546,44.0149987 26.2145457,44.265 C26.1545454,44.5150012 26.1245457,44.8099983 26.1245457,45.15 C26.1245457,45.7300029 26.0995459,46.1799984 26.0495457,46.5 C25.9995454,46.8200016 25.9745457,47.1199986 25.9745457,47.4 C25.9745457,48.3600048 26.0045454,49.2449959 26.0645457,50.055 C26.124546,50.865004 26.1745455,51.4799979 26.2145457,51.9 C26.5345473,51.8599998 26.8895437,51.5850026 27.2795457,51.075 C27.6695476,50.5649975 28.0545438,49.9500036 28.4345457,49.23 C28.8145476,48.5099964 29.1645441,47.750004 29.4845457,46.95 C29.8045473,46.149996 30.0645447,45.4400031 30.2645457,44.82 C30.3445461,44.5599987 30.3795457,44.3000013 30.3695457,44.04 C30.3595456,43.7799987 30.3845454,43.545001 30.4445457,43.335 C30.504546,43.124999 30.6395446,42.9500007 30.8495457,42.81 C31.0595467,42.6699993 31.4145432,42.6 31.9145457,42.6 C31.9345458,42.6 31.9545456,42.605 31.9745457,42.615 C31.9945458,42.6250001 32.0145456,42.63 32.0345457,42.63 C32.1945465,42.63 32.3845446,42.7099992 32.6045457,42.87 C32.8245468,43.0300008 32.9845452,43.1899992 33.0845457,43.35 C33.0845457,44.5300059 33.049546,45.4549966 32.9795457,46.125 C32.9095453,46.7950034 32.8745457,47.3699976 32.8745457,47.85 C32.8745457,48.8100048 32.939545,49.6349966 33.0695457,50.325 C33.1995463,51.0150035 33.4145442,51.5699979 33.7145457,51.99 C33.8345463,52.1300007 33.9445452,52.2649993 34.0445457,52.395 C34.1445462,52.5250007 34.2345453,52.6799991 34.3145457,52.86 C34.2745455,53.060001 34.2095461,53.2149994 34.1195457,53.325 C34.0295452,53.4350006 33.9245463,53.5149998 33.8045457,53.565 C33.6845451,53.6150002 33.5545464,53.6499999 33.4145457,53.67 C33.274545,53.6900001 33.1345464,53.7199998 32.9945457,53.76 C32.5545435,53.6599995 32.199547,53.4800013 31.9295457,53.22 C31.6595443,52.9599987 31.4395465,52.6450018 31.2695457,52.275 C31.0995448,51.9049982 30.9745461,51.4950022 30.8945457,51.045 C30.8145453,50.5949978 30.744546,50.1300024 30.6845457,49.65 L30.5645457,49.89 C30.4045449,50.2300017 30.189547,50.6799972 29.9195457,51.24 C29.6495443,51.8000028 29.3345475,52.3449974 28.9745457,52.875 C28.6145439,53.4050026 28.199548,53.8649981 27.7295457,54.255 C27.2595433,54.6450019 26.7545484,54.84 26.2145457,54.84 C25.6345428,54.84 25.1695474,54.7250012 24.8195457,54.495 C24.4695439,54.2649988 24.1995466,53.8900026 24.0095457,53.37 C23.8195447,52.8499974 23.689546,52.1800041 23.6195457,51.36 C23.5495453,50.5399959 23.5145457,49.530006 23.5145457,48.33 C23.5545459,48.0499986 23.5745457,47.7700014 23.5745457,47.49 L23.5745457,45.6 Z M39.2018185,48.12 C39.6018205,48.8800038 39.9718168,49.6449962 40.3118185,50.415 C40.6518202,51.1850038 40.8218185,52.0499952 40.8218185,53.01 C40.8218185,53.5100025 40.7368194,53.9799978 40.5668185,54.42 C40.3968177,54.8600022 40.16182,55.2499983 39.8618185,55.59 C39.561817,55.9300017 39.2018206,56.199999 38.7818185,56.4 C38.3618164,56.600001 37.9118209,56.7 37.4318185,56.7 C37.0118164,56.7 36.6268203,56.5350016 36.2768185,56.205 C35.9268168,55.8749984 35.7318187,55.5000021 35.6918185,55.08 C35.7718189,54.9199992 35.8468182,54.8050004 35.9168185,54.735 C35.9868189,54.6649997 36.1418173,54.6000003 36.3818185,54.54 C36.6218197,54.7800012 36.8618173,54.9 37.1018185,54.9 C37.4418202,54.9 37.7418172,54.7500015 38.0018185,54.45 C38.2618198,54.1499985 38.3918185,53.7700023 38.3918185,53.31 C38.3918185,53.1499992 38.3818186,53.0500002 38.3618185,53.01 C38.1418174,52.1099955 37.8618202,51.2950036 37.5218185,50.565 C37.1818168,49.8349964 36.8468202,49.1500032 36.5168185,48.51 C36.1868169,47.8699968 35.9018197,47.2650029 35.6618185,46.695 C35.4218173,46.1249972 35.3018185,45.5500029 35.3018185,44.97 C35.3018185,44.4899976 35.3418181,43.9950026 35.4218185,43.485 C35.5018189,42.9749975 35.6418175,42.5000022 35.8418185,42.06 C36.0418195,41.6199978 36.3068169,41.2600014 36.6368185,40.98 C36.9668202,40.6999986 37.3918159,40.56 37.9118185,40.56 C37.9718188,40.56 38.0268183,40.565 38.0768185,40.575 C38.1268188,40.5850001 38.1818182,40.59 38.2418185,40.59 C38.4418195,40.59 38.6118178,40.6949989 38.7518185,40.905 C38.8918192,41.115001 38.9918182,41.2999992 39.0518185,41.46 C39.0518185,41.6200008 38.9968191,41.7449996 38.8868185,41.835 C38.776818,41.9250004 38.671819,42.0199995 38.5718185,42.12 C38.3318173,42.4400016 38.1568191,42.794998 38.0468185,43.185 C37.936818,43.575002 37.8818185,43.969998 37.8818185,44.37 L37.8818185,45.09 C37.8818185,45.2300007 37.931818,45.4299987 38.0318185,45.69 C38.131819,45.9500013 38.2468179,46.2249986 38.3768185,46.515 C38.5068192,46.8050015 38.6368179,47.0749988 38.7668185,47.325 C38.8968192,47.5750013 39.0018181,47.7599994 39.0818185,47.88 L39.2018185,48.12 Z M42.4690914,50.04 C42.4690914,48.8999943 42.4440916,47.7200061 42.3940914,46.5 C42.3440911,45.2799939 42.3190914,44.070006 42.3190914,42.87 C42.3190914,42.1499964 42.3290913,41.3950039 42.3490914,40.605 C42.3690915,39.8149961 42.3990912,39.0500037 42.4390914,38.31 C42.4790916,37.5699963 42.5440909,36.8650033 42.6340914,36.195 C42.7240918,35.5249966 42.8390907,34.9500024 42.9790914,34.47 C43.3190931,34.3699995 43.6090902,34.32 43.8490914,34.32 C44.2690935,34.32 44.5790904,34.4749985 44.7790914,34.785 C44.9790924,35.0950016 45.0790914,35.449998 45.0790914,35.85 C45.0790914,36.3500025 45.0390918,36.794998 44.9590914,37.185 C44.879091,37.575002 44.8290915,37.9899978 44.8090914,38.43 C44.7690912,39.3100044 44.7340915,40.1249962 44.7040914,40.875 C44.6740912,41.6250038 44.6540914,42.3499965 44.6440914,43.05 C44.6340913,43.7500035 44.6240914,44.4349967 44.6140914,45.105 C44.6040913,45.7750033 44.5990914,46.4599965 44.5990914,47.16 C44.8190925,46.6199973 45.06909,46.1000025 45.3490914,45.6 C45.6290928,45.0999975 45.9240898,44.655002 46.2340914,44.265 C46.5440929,43.874998 46.8740896,43.5650012 47.2240914,43.335 C47.5740931,43.1049988 47.9190897,42.99 48.2590914,42.99 C48.7990941,43.0300002 49.2440896,43.2249982 49.5940914,43.575 C49.9440931,43.9250017 50.2190904,44.3399976 50.4190914,44.82 C50.6190924,45.3000024 50.759091,45.7899975 50.8390914,46.29 C50.9190918,46.7900025 50.9590914,47.1999984 50.9590914,47.52 C51.0390918,47.8400016 51.0940912,48.2049979 51.1240914,48.615 C51.1540915,49.025002 51.1890912,49.3999983 51.2290914,49.74 C51.3090918,50.4000033 51.4490904,51.0749965 51.6490914,51.765 C51.8490924,52.4550034 51.9690912,53.0899971 52.0090914,53.67 C51.9490911,53.870001 51.8190924,54.0499992 51.6190914,54.21 C51.4190904,54.3700008 51.2390922,54.45 51.0790914,54.45 C50.5790889,54.45 50.1790929,54.2100024 49.8790914,53.73 C49.5790899,53.2499976 49.3490922,52.6950032 49.1890914,52.065 C49.0290906,51.4349969 48.9240916,50.8000032 48.8740914,50.16 C48.8240911,49.5199968 48.7990914,49.0500015 48.7990914,48.75 C48.7990914,48.5099988 48.7740916,48.2100018 48.7240914,47.85 C48.6740911,47.4899982 48.6140917,47.1450017 48.5440914,46.815 C48.474091,46.4849983 48.3990918,46.2050011 48.3190914,45.975 C48.239091,45.7449989 48.1590918,45.63 48.0790914,45.63 C47.8390902,45.7100004 47.6090925,45.8999985 47.3890914,46.2 C47.1690903,46.5000015 46.9640923,46.8649978 46.7740914,47.295 C46.5840904,47.7250022 46.4090922,48.1799976 46.2490914,48.66 C46.0890906,49.1400024 45.9540919,49.5999978 45.8440914,50.04 C45.7340908,50.4800022 45.6440917,50.8699983 45.5740914,51.21 C45.504091,51.5500017 45.4590915,51.7799994 45.4390914,51.9 L45.4390914,52.05 C45.4390914,52.0900002 45.4340914,52.115 45.4240914,52.125 C45.4140913,52.135 45.4090914,52.1599998 45.4090914,52.2 L45.4090914,52.32 C45.3890913,52.5400011 45.3640915,52.7599989 45.3340914,52.98 C45.3040912,53.2000011 45.2590917,53.404999 45.1990914,53.595 C45.1390911,53.7850009 45.0590919,53.9399994 44.9590914,54.06 C44.8590909,54.1800006 44.7390921,54.24 44.5990914,54.24 C44.0790888,54.24 43.6740928,54.1300011 43.3840914,53.91 C43.0940899,53.6899989 42.8790921,53.4050018 42.7390914,53.055 C42.5990907,52.7049983 42.5190915,52.3150021 42.4990914,51.885 C42.4790913,51.4549978 42.4690914,51.0200022 42.4690914,50.58 L42.4690914,50.04 Z M60.733637,50.04 C60.733637,48.8999943 60.7086373,47.7200061 60.658637,46.5 C60.6086368,45.2799939 60.583637,44.070006 60.583637,42.87 C60.583637,42.1499964 60.5936369,41.3950039 60.613637,40.605 C60.6336371,39.8149961 60.6636368,39.0500037 60.703637,38.31 C60.7436372,37.5699963 60.8086366,36.8650033 60.898637,36.195 C60.9886375,35.5249966 61.1036363,34.9500024 61.243637,34.47 C61.5836387,34.3699995 61.8736358,34.32 62.113637,34.32 C62.5336391,34.32 62.843636,34.4749985 63.043637,34.785 C63.243638,35.0950016 63.343637,35.449998 63.343637,35.85 C63.343637,36.3500025 63.3036374,36.794998 63.223637,37.185 C63.1436366,37.575002 63.0936371,37.9899978 63.073637,38.43 C63.0336368,39.3100044 62.9986372,40.1249962 62.968637,40.875 C62.9386369,41.6250038 62.9186371,42.3499965 62.908637,43.05 C62.898637,43.7500035 62.8886371,44.4349967 62.878637,45.105 C62.868637,45.7750033 62.863637,46.4599965 62.863637,47.16 C63.0836381,46.6199973 63.3336356,46.1000025 63.613637,45.6 C63.8936384,45.0999975 64.1886355,44.655002 64.498637,44.265 C64.8086386,43.874998 65.1386353,43.5650012 65.488637,43.335 C65.8386388,43.1049988 66.1836353,42.99 66.523637,42.99 C67.0636397,43.0300002 67.5086353,43.2249982 67.858637,43.575 C68.2086388,43.9250017 68.483636,44.3399976 68.683637,44.82 C68.883638,45.3000024 69.0236366,45.7899975 69.103637,46.29 C69.1836374,46.7900025 69.223637,47.1999984 69.223637,47.52 C69.3036374,47.8400016 69.3586369,48.2049979 69.388637,48.615 C69.4186372,49.025002 69.4536368,49.3999983 69.493637,49.74 C69.5736374,50.4000033 69.713636,51.0749965 69.913637,51.765 C70.113638,52.4550034 70.2336368,53.0899971 70.273637,53.67 C70.2136367,53.870001 70.083638,54.0499992 69.883637,54.21 C69.683636,54.3700008 69.5036378,54.45 69.343637,54.45 C68.8436345,54.45 68.4436385,54.2100024 68.143637,53.73 C67.8436355,53.2499976 67.6136378,52.6950032 67.453637,52.065 C67.2936362,51.4349969 67.1886373,50.8000032 67.138637,50.16 C67.0886368,49.5199968 67.063637,49.0500015 67.063637,48.75 C67.063637,48.5099988 67.0386373,48.2100018 66.988637,47.85 C66.9386368,47.4899982 66.8786374,47.1450017 66.808637,46.815 C66.7386367,46.4849983 66.6636374,46.2050011 66.583637,45.975 C66.5036366,45.7449989 66.4236374,45.63 66.343637,45.63 C66.1036358,45.7100004 65.8736381,45.8999985 65.653637,46.2 C65.4336359,46.5000015 65.228638,46.8649978 65.038637,47.295 C64.8486361,47.7250022 64.6736378,48.1799976 64.513637,48.66 C64.3536362,49.1400024 64.2186376,49.5999978 64.108637,50.04 C63.9986365,50.4800022 63.9086374,50.8699983 63.838637,51.21 C63.7686367,51.5500017 63.7236371,51.7799994 63.703637,51.9 L63.703637,52.05 C63.703637,52.0900002 63.6986371,52.115 63.688637,52.125 C63.678637,52.135 63.673637,52.1599998 63.673637,52.2 L63.673637,52.32 C63.6536369,52.5400011 63.6286372,52.7599989 63.598637,52.98 C63.5686369,53.2000011 63.5236373,53.404999 63.463637,53.595 C63.4036367,53.7850009 63.3236375,53.9399994 63.223637,54.06 C63.1236365,54.1800006 63.0036377,54.24 62.863637,54.24 C62.3436344,54.24 61.9386385,54.1300011 61.648637,53.91 C61.3586356,53.6899989 61.1436377,53.4050018 61.003637,53.055 C60.8636363,52.7049983 60.7836371,52.3150021 60.763637,51.885 C60.7436369,51.4549978 60.733637,51.0200022 60.733637,50.58 L60.733637,50.04 Z M71.8309099,45.6 C71.8309099,45.0599973 71.8509097,44.5400025 71.8909099,44.04 C71.9309101,43.5399975 72.0309091,43.0500024 72.1909099,42.57 C72.21091,42.5299998 72.2659094,42.4850002 72.3559099,42.435 C72.4459103,42.3849998 72.5509093,42.3400002 72.6709099,42.3 C72.7309102,42.2799999 72.7959095,42.2600001 72.8659099,42.24 C72.9359102,42.2199999 73.0209094,42.2000001 73.1209099,42.18 C73.4409115,42.2200002 73.7609083,42.339999 74.0809099,42.54 C74.4009115,42.740001 74.5609099,43.0299981 74.5609099,43.41 C74.5609099,43.7300016 74.5309102,44.0149987 74.4709099,44.265 C74.4109096,44.5150012 74.3809099,44.8099983 74.3809099,45.15 C74.3809099,45.7300029 74.3559101,46.1799984 74.3059099,46.5 C74.2559096,46.8200016 74.2309099,47.1199986 74.2309099,47.4 C74.2309099,48.3600048 74.2609096,49.2449959 74.3209099,50.055 C74.3809102,50.865004 74.4309097,51.4799979 74.4709099,51.9 C74.7909115,51.8599998 75.1459079,51.5850026 75.5359099,51.075 C75.9259118,50.5649975 76.310908,49.9500036 76.6909099,49.23 C77.0709118,48.5099964 77.4209083,47.750004 77.7409099,46.95 C78.0609115,46.149996 78.3209089,45.4400031 78.5209099,44.82 C78.6009103,44.5599987 78.6359099,44.3000013 78.6259099,44.04 C78.6159098,43.7799987 78.6409096,43.545001 78.7009099,43.335 C78.7609102,43.124999 78.8959088,42.9500007 79.1059099,42.81 C79.3159109,42.6699993 79.6709074,42.6 80.1709099,42.6 C80.19091,42.6 80.2109098,42.605 80.2309099,42.615 C80.25091,42.6250001 80.2709098,42.63 80.2909099,42.63 C80.4509107,42.63 80.6409088,42.7099992 80.8609099,42.87 C81.080911,43.0300008 81.2409094,43.1899992 81.3409099,43.35 C81.3409099,44.5300059 81.3059102,45.4549966 81.2359099,46.125 C81.1659095,46.7950034 81.1309099,47.3699976 81.1309099,47.85 C81.1309099,48.8100048 81.1959092,49.6349966 81.3259099,50.325 C81.4559105,51.0150035 81.6709084,51.5699979 81.9709099,51.99 C82.0909105,52.1300007 82.2009094,52.2649993 82.3009099,52.395 C82.4009104,52.5250007 82.4909095,52.6799991 82.5709099,52.86 C82.5309097,53.060001 82.4659103,53.2149994 82.3759099,53.325 C82.2859094,53.4350006 82.1809105,53.5149998 82.0609099,53.565 C81.9409093,53.6150002 81.8109106,53.6499999 81.6709099,53.67 C81.5309092,53.6900001 81.3909106,53.7199998 81.2509099,53.76 C80.8109077,53.6599995 80.4559112,53.4800013 80.1859099,53.22 C79.9159085,52.9599987 79.6959107,52.6450018 79.5259099,52.275 C79.355909,51.9049982 79.2309103,51.4950022 79.1509099,51.045 C79.0709095,50.5949978 79.0009102,50.1300024 78.9409099,49.65 L78.8209099,49.89 C78.6609091,50.2300017 78.4459112,50.6799972 78.1759099,51.24 C77.9059085,51.8000028 77.5909117,52.3449974 77.2309099,52.875 C76.8709081,53.4050026 76.4559122,53.8649981 75.9859099,54.255 C75.5159075,54.6450019 75.0109126,54.84 74.4709099,54.84 C73.890907,54.84 73.4259116,54.7250012 73.0759099,54.495 C72.7259081,54.2649988 72.4559108,53.8900026 72.2659099,53.37 C72.0759089,52.8499974 71.9459102,52.1800041 71.8759099,51.36 C71.8059095,50.5399959 71.7709099,49.530006 71.7709099,48.33 C71.8109101,48.0499986 71.8309099,47.7700014 71.8309099,47.49 L71.8309099,45.6 Z M93.9381827,53.46 C93.998183,53.6200008 94.0581824,53.7849991 94.1181827,53.955 C94.178183,54.1250009 94.2081827,54.2899992 94.2081827,54.45 C94.2081827,54.6100008 94.1631832,54.7399995 94.0731827,54.84 C93.9831823,54.9400005 93.8731834,55.0199997 93.7431827,55.08 C93.6131821,55.1400003 93.4781834,55.1849999 93.3381827,55.215 C93.198182,55.2450002 93.0681833,55.26 92.9481827,55.26 C92.5481807,55.26 92.218184,55.0350022 91.9581827,54.585 C91.6981814,54.1349978 91.4881835,53.5750033 91.3281827,52.905 C91.1681819,52.2349966 91.0331833,51.5250037 90.9231827,50.775 C90.8131822,50.0249963 90.7081832,49.350003 90.6081827,48.75 C90.5481824,49.1700021 90.3531844,49.6999968 90.0231827,50.34 C89.6931811,50.9800032 89.2781852,51.594997 88.7781827,52.185 C88.2781802,52.775003 87.7281857,53.2799979 87.1281827,53.7 C86.5281797,54.1200021 85.9281857,54.33 85.3281827,54.33 C84.8481803,54.33 84.4531843,54.2350009 84.1431827,54.045 C83.8331812,53.854999 83.5981835,53.6200014 83.4381827,53.34 C83.2781819,53.0599986 83.168183,52.7450017 83.1081827,52.395 C83.0481824,52.0449983 83.0181827,51.7200015 83.0181827,51.42 C83.0181827,50.7599967 83.1831811,49.9450049 83.5131827,48.975 C83.8431844,48.0049951 84.2931799,47.0600046 84.8631827,46.14 C85.4331856,45.2199954 86.093179,44.4350032 86.8431827,43.785 C87.5931865,43.1349968 88.3881785,42.81 89.2281827,42.81 C89.4081836,42.81 89.6131816,42.8399997 89.8431827,42.9 C90.0731839,42.9600003 90.3081815,43.0349996 90.5481827,43.125 C90.7881839,43.2150004 91.0181816,43.3249994 91.2381827,43.455 C91.4581838,43.5850007 91.6481819,43.7099994 91.8081827,43.83 C92.1481844,44.1100014 92.3781821,44.4899976 92.4981827,44.97 C92.6181833,45.4500024 92.7081824,45.9499974 92.7681827,46.47 C92.9081834,47.470005 93.0181823,48.374996 93.0981827,49.185 C93.1781831,49.995004 93.3281816,50.8499955 93.5481827,51.75 L93.7281827,52.86 L93.9381827,53.46 Z M85.4781827,51.9 C85.4781827,51.9200001 85.4831827,51.935 85.4931827,51.945 C85.5031828,51.9550001 85.5081827,51.9699999 85.5081827,51.99 C85.768184,51.9699999 86.068181,51.7950016 86.4081827,51.465 C86.7481844,51.1349984 87.088181,50.7400023 87.4281827,50.28 C87.7681844,49.8199977 88.0831813,49.3350026 88.3731827,48.825 C88.6631842,48.3149975 88.878182,47.860002 89.0181827,47.46 C89.0981831,47.2799991 89.1931822,47.0800011 89.3031827,46.86 C89.4131833,46.6399989 89.5231822,46.4150011 89.6331827,46.185 C89.7431833,45.9549989 89.8331824,45.740001 89.9031827,45.54 C89.9731831,45.339999 90.0081827,45.1700007 90.0081827,45.03 C89.9081822,44.9899998 89.8181831,44.9500002 89.7381827,44.91 C89.6581823,44.8699998 89.5681832,44.85 89.4681827,44.85 C89.0281805,44.85 88.6381844,45.0199983 88.2981827,45.36 C87.958181,45.7000017 87.663184,46.0799979 87.4131827,46.5 C87.1631815,46.9200021 86.9581835,47.3249981 86.7981827,47.715 C86.6381819,48.1050019 86.528183,48.3499995 86.4681827,48.45 C86.1881813,48.9500025 85.9531837,49.4899971 85.7631827,50.07 C85.5731818,50.6500029 85.4781827,51.2099973 85.4781827,51.75 L85.4781827,51.9 Z M98.4954555,53.13 C98.0954535,53.1099999 97.7154573,52.9300017 97.3554555,52.59 C96.9954537,52.2499983 96.8154555,51.8900019 96.8154555,51.51 C96.8154555,51.2499987 96.9154545,51.0250009 97.1154555,50.835 C97.3154565,50.644999 97.5254544,50.55 97.7454555,50.55 L98.8854555,50.64 C99.3254577,50.7400005 99.595455,50.9799981 99.6954555,51.36 C99.7754559,51.6600015 99.8154555,51.909999 99.8154555,52.11 C99.8154555,52.4900019 99.7154565,52.7549992 99.5154555,52.905 C99.3154545,53.0550007 99.0554571,53.13 98.7354555,53.13 L98.4954555,53.13 Z M106.142728,53.13 C105.742726,53.1099999 105.36273,52.9300017 105.002728,52.59 C104.642727,52.2499983 104.462728,51.8900019 104.462728,51.51 C104.462728,51.2499987 104.562727,51.0250009 104.762728,50.835 C104.962729,50.644999 105.172727,50.55 105.392728,50.55 L106.532728,50.64 C106.972731,50.7400005 107.242728,50.9799981 107.342728,51.36 C107.422729,51.6600015 107.462728,51.909999 107.462728,52.11 C107.462728,52.4900019 107.362729,52.7549992 107.162728,52.905 C106.962727,53.0550007 106.70273,53.13 106.382728,53.13 L106.142728,53.13 Z M113.790001,53.13 C113.389999,53.1099999 113.010003,52.9300017 112.650001,52.59 C112.289999,52.2499983 112.110001,51.8900019 112.110001,51.51 C112.110001,51.2499987 112.21,51.0250009 112.410001,50.835 C112.610002,50.644999 112.82,50.55 113.040001,50.55 L114.180001,50.64 C114.620003,50.7400005 114.890001,50.9799981 114.990001,51.36 C115.070002,51.6600015 115.110001,51.909999 115.110001,52.11 C115.110001,52.4900019 115.010002,52.7549992 114.810001,52.905 C114.61,53.0550007 114.350003,53.13 114.030001,53.13 L113.790001,53.13 Z"/>
</svg>
