<svg xmlns="http://www.w3.org/2000/svg" width="23" height="23" viewBox="0 0 23 23">
  <g fill="#0EA455">
    <path d="M11.4987222,0.0562222222 C5.18905556,0.0562222222 0.0562222222,5.19033333 0.0562222222,11.5 C0.0562222222,17.8096667 5.18905556,22.9425 11.4987222,22.9425 C17.8096667,22.9425 22.9450556,17.8096667 22.9450556,11.5 C22.9450556,5.19033333 17.8096667,0.0562222222 11.4987222,0.0562222222 Z M11.4987222,22.0915 C5.66055556,22.0915 0.909777778,17.3407222 0.909777778,11.5012778 C0.909777778,5.66183333 5.65927778,0.911055556 11.4987222,0.911055556 C17.3381667,0.911055556 22.0902222,5.66183333 22.0902222,11.5012778 C22.0902222,17.3407222 17.3381667,22.0915 11.4987222,22.0915 Z"/>
    <path d="M17.4416667,7.1185 C17.4391111,7.1185 17.4365556,7.1185 17.434,7.1185 C17.3202778,7.1185 17.2103889,7.16194444 17.1324444,7.23988889 L9.522,14.8528889 L5.86627778,11.1997222 C5.78833333,11.1205 5.67844444,11.0770556 5.56216667,11.0770556 C5.56088889,11.0770556 5.55961111,11.0770556 5.55833333,11.0770556 C5.44333333,11.0770556 5.336,11.1217778 5.26444444,11.1958889 C5.18266667,11.2751111 5.13666667,11.3837222 5.13666667,11.5 C5.13666667,11.615 5.18138889,11.7223333 5.26188889,11.8015556 L9.18211111,15.7166667 C9.22683333,15.7754444 9.28816667,15.8227222 9.35205556,15.8495556 C9.40572222,15.8738333 9.46322222,15.8853333 9.522,15.8853333 C9.63572222,15.8853333 9.74177778,15.8418889 9.82355556,15.7601111 L17.7355556,7.84555556 C17.8160556,7.76633333 17.8620556,7.659 17.8620556,7.54272222 C17.8620556,7.42772222 17.8173333,7.32038889 17.7393889,7.245 C17.6627222,7.16577778 17.5579444,7.12105556 17.4416667,7.1185 Z"/>
  </g>
</svg>
